<svg id="Layer_6" data-name="Layer 6" xmlns="http://www.w3.org/2000/svg" viewBox="0 0 1561.78 175.74"><defs><style>.cls-1{fill:#4c9ca4;}.cls-2{fill:none;stroke:#4c9ca4;stroke-miterlimit:10;stroke-width:4px;isolation:isolate;}</style></defs><path class="cls-1" d="M418.29,173.74a29.23,29.23,0,1,1,29.23-29.23h0a29.26,29.26,0,0,1-29.23,29.23m0,4a33.23,33.23,0,1,0-33.22-33.24h0A33.23,33.23,0,0,0,418.29,177.74Z" transform="translate(0 -2)"/><path class="cls-1" d="M33.23,64.46A29.23,29.23,0,1,1,62.45,35.22h0A29.26,29.26,0,0,1,33.23,64.46m0,4A33.23,33.23,0,1,0,0,35.23H0A33.22,33.22,0,0,0,33.21,68.46Z" transform="translate(0 -2)"/><line class="cls-2" x1="1559.95" y1="32.99" x2="65.43" y2="32.99"/><path class="cls-2" d="M1561.78,57H487.67s-69.54-3.66-69.54,25.62v29.27" transform="translate(0 -2)"/></svg>