<svg id="Layer_6" data-name="Layer 6" xmlns="http://www.w3.org/2000/svg" viewBox="0 0 512.63 365.76"><defs><style>.cls-1{fill:#fff;}.cls-2{fill:none;stroke:#fff;stroke-miterlimit:10;stroke-width:4px;isolation:isolate;}</style></defs><path class="cls-1" d="M237.47,4a29.23,29.23,0,1,1-29.22,29.24h0A29.26,29.26,0,0,1,237.47,4m0-4A33.23,33.23,0,1,0,270.7,33.23h0A33.22,33.22,0,0,0,237.49,0Z" transform="translate(0.01 0)"/><path class="cls-1" d="M479.39,294.06a29.23,29.23,0,1,1-29.23,29.23h0a29.26,29.26,0,0,1,29.23-29.22m0-4a33.23,33.23,0,1,0,33.23,33.23h0a33.22,33.22,0,0,0-33.22-33.22Z" transform="translate(0.01 0)"/><path class="cls-1" d="M52.75,264.26A48.75,48.75,0,1,1,4,313H4a48.8,48.8,0,0,1,48.75-48.74m0-4A52.75,52.75,0,1,0,105.49,313v0A52.75,52.75,0,0,0,52.75,260.26Z" transform="translate(0.01 0)"/><line class="cls-2" x1="446.17" y1="323.28" x2="102.24" y2="323.28"/><path class="cls-2" d="M102.23,301h81.1s51.83,1.33,53.16-41.2,0-193.37,0-193.37" transform="translate(0.01 0)"/></svg>