<svg xmlns="http://www.w3.org/2000/svg" viewBox="0 0 1562.78 175.74"><defs><style>.cls-1{fill:#fff;}.cls-2{fill:none;stroke:#fff;stroke-miterlimit:10;stroke-width:4px;isolation:isolate;}</style></defs><g id="Layer_6" data-name="Layer 6"><path class="cls-1" d="M1143.49,6a29.23,29.23,0,1,1-29.23,29.23h0A29.26,29.26,0,0,1,1143.49,6m0-4a33.23,33.23,0,1,0,33.22,33.24h0A33.23,33.23,0,0,0,1143.49,2Z" transform="translate(0 -2)"/><path class="cls-1" d="M1529.55,115.28a29.23,29.23,0,1,1-29.22,29.24h0a29.26,29.26,0,0,1,29.22-29.23m0-4a33.23,33.23,0,1,0,33.23,33.23h0a33.22,33.22,0,0,0-33.21-33.23Z" transform="translate(0 -2)"/><line class="cls-2" x1="1.83" y1="142.75" x2="1496.35" y2="142.75"/><path class="cls-2" d="M0,122.79H1074.11s69.54,3.66,69.54-25.62V67.9" transform="translate(0 -2)"/></g></svg>