<svg xmlns="http://www.w3.org/2000/svg" viewBox="0 0 859.11 679.65"><defs><style>.cls-1{fill:#fbdf83;}.cls-2{fill:#606060;}.cls-3{fill:#aaa;}.cls-4{fill:#1b6d77;}.cls-5{fill:#fff;}.cls-6{fill:#020202;}.cls-7{fill:#157179;}.cls-8{fill:#939393;}.cls-9{fill:#2eb6bd;}.cls-10{fill:#177075;}</style></defs><g id="Layer_2" data-name="Layer 2"><path class="cls-1" d="M552.82,122.7c147.09-159.7,313.49-98.29,352,18.52,40,121.33,15.19,182.83-55.1,275.8S622.83,502.63,561.27,598.23c-51.68,80.24-211.82,120.34-276,96.71s-175-88.51-203.87-161.32C32,409.42,149.21,225.9,239.94,182.39,441.66,85.64,480.77,200.92,552.82,122.7Z" transform="translate(-69.67 -22.02)"/><path class="cls-2" d="M873.36,132.77a210.8,210.8,0,0,0-18.08-27.92,144.54,144.54,0,0,0-22.66-24,85.36,85.36,0,0,0-13.56-9.16c-1.22-.59-2.39-1.26-3.66-1.8l-3.78-1.68-1.88-.83-1.93-.76L804,65.1a188.2,188.2,0,0,0-31.79-8.9,184.71,184.71,0,0,0-32.82-3.44,126.49,126.49,0,0,0-32.63,3.69,265.51,265.51,0,0,0-31.36,10.87c-10.28,4.16-20.34,8.91-30.21,14,4.73-2.92,9.59-5.65,14.52-8.24s9.93-5.07,15-7.42a237.41,237.41,0,0,1,31.3-12,104.36,104.36,0,0,1,16.57-3.33c2.79-.42,5.6-.56,8.41-.78,1.4-.14,2.81-.13,4.21-.18l4.22-.1a184.36,184.36,0,0,1,33.48,3.31,187.34,187.34,0,0,1,32.33,9.26l3.89,1.6,1.95.8,1.92.89L816.77,67c1.28.56,2.53,1.29,3.79,1.93a82.17,82.17,0,0,1,13.85,9.78,136.92,136.92,0,0,1,22.28,25.11q4.78,6.89,9,14.13A157.72,157.72,0,0,1,873.36,132.77Z" transform="translate(-69.67 -22.02)"/><path class="cls-2" d="M472.12,172.89l-65.56-2.26c-10.92-.33-21.84-.74-32.75-.89-2.73,0-5.46-.1-8.18-.1h-4.08c-1.34,0-2.67,0-4,.13a154.05,154.05,0,0,0-16.1,1.84,306.31,306.31,0,0,0-31.83,7q-7.87,2.13-15.67,4.59t-15.46,5.25a281.42,281.42,0,0,0-30,12.82c-9.71,4.87-19.16,10.51-27.11,18a75.81,75.81,0,0,1,12.36-10.81,147,147,0,0,1,13.93-8.79,245,245,0,0,1,29.85-13.89,320.6,320.6,0,0,1,63.39-17.75,158.45,158.45,0,0,1,16.48-1.8c1.39-.1,2.79-.07,4.18-.11l4.12,0c2.75,0,5.49.08,8.22.17q16.42.53,32.81,1.49Q439.45,169.72,472.12,172.89Z" transform="translate(-69.67 -22.02)"/><path class="cls-2" d="M778.07,442.48q12.06-8.87,23.45-18.43c7.58-6.38,15-13,22-20a243,243,0,0,0,19.79-22q4.56-5.84,8.68-12c2.73-4.13,5.22-8.42,7.62-12.81a104.82,104.82,0,0,1-6.1,13.72,134.76,134.76,0,0,1-8,12.78c-2.88,4.12-6,8.06-9.25,11.89s-6.72,7.47-10.26,11-7.26,6.93-11,10.21-7.69,6.42-11.71,9.41A189.53,189.53,0,0,1,778.07,442.48Z" transform="translate(-69.67 -22.02)"/><path class="cls-2" d="M874.62,179.16c-4.53-10.13-9.18-20.16-14.16-30-2.52-4.9-5.08-9.78-7.84-14.52a150.72,150.72,0,0,0-8.83-13.82,80.58,80.58,0,0,0-5-6.37,51.24,51.24,0,0,0-5.78-5.62c-4.1-3.61-8.46-7-12.92-10.15a251.85,251.85,0,0,0-28.19-17.32,153,153,0,0,1,29.77,15,137,137,0,0,1,13.54,9.88l1.63,1.34,1.59,1.45c.54.48,1,1,1.52,1.52s1,1,1.46,1.56a81.37,81.37,0,0,1,5.33,6.6A172.87,172.87,0,0,1,863,148,247.4,247.4,0,0,1,874.62,179.16Z" transform="translate(-69.67 -22.02)"/><path class="cls-2" d="M399.81,675.75a199.35,199.35,0,0,1-20.52,3.88c-3.44.53-6.9.88-10.36,1.28s-6.93.64-10.4.87-7,.34-10.45.45-7,.09-10.47-.12c-7-.3-14-.89-20.74-2.79,7,.42,13.85.21,20.75,0s13.78-.63,20.68-1.11c3.45-.17,6.89-.46,10.35-.67s6.9-.48,10.36-.68C385.92,676.4,392.84,676,399.81,675.75Z" transform="translate(-69.67 -22.02)"/><ellipse class="cls-3" cx="584.69" cy="478.29" rx="96.2" ry="18.23"/><path d="M786.1,626.64c-13.89.47-27.82.45-41.73-.24-7-.35-13.91-.8-20.85-1.49s-13.85-1.57-20.74-2.66-13.76-2.38-20.57-3.93-13.53-3.46-20.18-5.63c-3.32-1.1-6.62-2.24-9.88-3.51s-6.48-2.62-9.66-4.08A178.87,178.87,0,0,1,624,595.34a197.21,197.21,0,0,1-17.26-11.83c-5.55-4.21-10.86-8.72-16.18-13.18s-10.77-8.81-16.82-12.11c-6.16-3.1-12.53-6-18.89-8.72C542.07,544,529.13,538.89,516,534.59c-6.6-2.13-13.24-4.11-19.94-5.82s-13.48-3.13-20.29-4.33l-10.28-1.78a62.69,62.69,0,0,1-10.35-2.53l-1.28-.49-1.26-.58c-.79-.36-1.51-.71-2.3-1-1.55-.64-3.16-1.2-4.78-1.69a90.43,90.43,0,0,0-10-2.39,152.84,152.84,0,0,0-41.08-2c-3.43.3-6.84.74-10.22,1.34-1.69.3-3.37.64-5,1l-2.58.61c-.89.17-1.76.31-2.64.44-7,.94-13.92,1.32-20.87,1.72-13.9.74-27.8,1.16-41.71,1.52-55.6,1.35-111.21,1.57-166.82,1.44v-.3q41.7-.28,83.4-1c27.79-.51,55.59-1,83.37-1.94,13.89-.46,27.78-1,41.63-1.82,6.92-.44,13.87-.89,20.67-1.83.85-.13,1.68-.27,2.5-.43l1.21-.29,1.27-.34c1.7-.45,3.42-.85,5.14-1.2,3.45-.72,6.92-1.26,10.41-1.66a132,132,0,0,1,21-.72,143.35,143.35,0,0,1,20.94,2.33,94.7,94.7,0,0,1,10.26,2.63c1.69.54,3.37,1.15,5,1.86.82.34,1.65.76,2.44,1.13L455,517l1.15.45a60,60,0,0,0,9.86,2.48l10.25,1.86a273.46,273.46,0,0,1,40.42,10.82c13.16,4.62,26,10,38.69,15.74,6.33,2.92,12.63,5.79,18.87,9,6.16,3.4,11.53,7.91,16.91,12.3s10.71,8.86,16.28,13a169.49,169.49,0,0,0,17.39,11.35,178.05,178.05,0,0,0,18.59,9.17c6.37,2.7,12.88,5,19.45,7.16s13.28,3.86,20,5.43,13.52,3,20.35,4.11,13.7,2.08,20.59,2.85,13.79,1.45,20.71,2,13.86.82,20.8,1.15,13.88.42,20.83.57Z" transform="translate(-69.67 -22.02)"/></g><g id="Layer_7" data-name="Layer 7"><ellipse class="cls-4" cx="581.73" cy="452.5" rx="77.12" ry="29.58"/><rect class="cls-4" x="504.62" y="436.65" width="154.23" height="15.85"/><ellipse class="cls-5" cx="581.73" cy="436.65" rx="77.12" ry="29.58"/><path d="M574.38,458.67a14.77,14.77,0,0,0,4.39,9.7,34.7,34.7,0,0,0,8.71,6.55,86,86,0,0,0,20.5,7.54,167.17,167.17,0,0,0,21.56,3.7c3.63.39,7.27.68,10.91.91s7.3.31,10.95.35a202.57,202.57,0,0,0,21.89-.95c3.64-.38,7.27-.83,10.88-1.44s7.18-1.39,10.72-2.3a81.79,81.79,0,0,0,20.38-7.89,35,35,0,0,0,8.56-6.65,12.64,12.64,0,0,0-.19-18.88,28.18,28.18,0,0,0-4-3.51,45.08,45.08,0,0,0-4.55-2.92,87.24,87.24,0,0,0-20.31-7.7,153.16,153.16,0,0,0-21.5-3.83,206.86,206.86,0,0,0-21.84-1.23,212.6,212.6,0,0,0-21.85,1.14A165.75,165.75,0,0,0,608,434.9a85.87,85.87,0,0,0-20.49,7.53,34.9,34.9,0,0,0-8.71,6.54A14.72,14.72,0,0,0,574.38,458.67Zm-.2,0c0-3.75,1.87-7.24,4.34-9.94a38.55,38.55,0,0,1,8.69-6.78,88.21,88.21,0,0,1,20.44-8.32,163.89,163.89,0,0,1,43.75-5.57,170,170,0,0,1,43.82,5.3,85.67,85.67,0,0,1,20.62,8.14,36.43,36.43,0,0,1,8.81,6.89c2.51,2.76,4.45,6.38,4.41,10.28a15.31,15.31,0,0,1-4.6,10.11,29.16,29.16,0,0,1-4.19,3.66,45.56,45.56,0,0,1-4.65,3,70.94,70.94,0,0,1-10,4.59c-3.45,1.28-7,2.42-10.51,3.36a180.57,180.57,0,0,1-43.67,5.68,160.59,160.59,0,0,1-43.74-5.41,86.93,86.93,0,0,1-20.44-8.3,38.57,38.57,0,0,1-8.69-6.77C576.05,465.9,574.17,462.42,574.18,458.67Z" transform="translate(-69.67 -22.02)"/><path class="cls-6" d="M728.57,458.67l.25,13c0,1.09,0,2.15,0,3.26a11.78,11.78,0,0,1-.53,3.28,16.36,16.36,0,0,1-3.23,5.77,28,28,0,0,1-4.82,4.47,43.36,43.36,0,0,1-5.52,3.53,72.55,72.55,0,0,1-12,5.13,142.91,142.91,0,0,1-25.4,5.49,224.7,224.7,0,0,1-25.92,1.83,186.18,186.18,0,0,1-26-1.49A131.84,131.84,0,0,1,600,497.2a74,74,0,0,1-12-5.19,43.91,43.91,0,0,1-5.52-3.55,28.07,28.07,0,0,1-4.81-4.5,16.49,16.49,0,0,1-3.22-5.77,11.78,11.78,0,0,1-.53-3.28c0-1.11,0-2.17,0-3.26l.24-13h.11l.24,13c0,1.08,0,2.18.06,3.23a11.56,11.56,0,0,0,.58,3.09,16.39,16.39,0,0,0,3.19,5.41,27,27,0,0,0,4.73,4.26,43,43,0,0,0,5.44,3.39,78.71,78.71,0,0,0,11.84,5,145.19,145.19,0,0,0,25.16,5.77,200.87,200.87,0,0,0,25.82,1.93c17.25.19,34.71-1.91,51-7.59a79.51,79.51,0,0,0,11.83-5.11,44.23,44.23,0,0,0,5.44-3.4,27.05,27.05,0,0,0,4.71-4.29,16.29,16.29,0,0,0,3.18-5.41,11.64,11.64,0,0,0,.58-3.09c.06-1.05,0-2.15.06-3.23l.25-13Z" transform="translate(-69.67 -22.02)"/><path class="cls-7" d="M625.57,454.84h6.53c1.07-6.46,5.71-9.92,10.67-9.92,5.59,0,8.86,3.27,11.49,9.73,2.26,5.47,3.89,7.79,7.16,7.79,2.51,0,5.4-1.82,5.4-6.66a15.13,15.13,0,0,0-2.14-7.91l4.15-1.57a16.79,16.79,0,0,1,2.2,8.17h6.09v3.89h-6.34c-.95,5.77-4.9,9.48-10.11,9.48-5.47,0-8.35-4-10.87-10.36-1.88-4.65-4-7.1-7.47-7.1s-6.15,3-6.15,7.48a16.72,16.72,0,0,0,2.7,9l-4.21,1.5a18.21,18.21,0,0,1-2.76-9.6h-6.34Z" transform="translate(-69.67 -22.02)"/><ellipse class="cls-4" cx="588.71" cy="431.45" rx="77.12" ry="29.58"/><rect class="cls-4" x="511.59" y="415.6" width="154.23" height="15.85"/><ellipse class="cls-5" cx="588.71" cy="415.6" rx="77.12" ry="29.58"/><path d="M581.36,437.62a14.7,14.7,0,0,0,4.39,9.71,34.9,34.9,0,0,0,8.71,6.54A85.74,85.74,0,0,0,615,461.41a167.46,167.46,0,0,0,21.56,3.7c3.63.39,7.27.68,10.91.91s7.3.31,11,.35a202.75,202.75,0,0,0,21.9-.95c3.63-.37,7.27-.82,10.87-1.44s7.18-1.39,10.73-2.29a82.36,82.36,0,0,0,20.38-7.9,34.87,34.87,0,0,0,8.55-6.64c2.41-2.65,4.17-6,4.14-9.53a14.28,14.28,0,0,0-4.32-9.36,28.34,28.34,0,0,0-4-3.51,45.57,45.57,0,0,0-4.54-2.92,87.86,87.86,0,0,0-20.31-7.7,153.56,153.56,0,0,0-21.51-3.83,206.86,206.86,0,0,0-21.84-1.23,212.6,212.6,0,0,0-21.85,1.14A164,164,0,0,0,615,413.86a85.49,85.49,0,0,0-20.5,7.52,35.08,35.08,0,0,0-8.71,6.54A14.77,14.77,0,0,0,581.36,437.62Zm-.2,0a15,15,0,0,1,4.34-9.93,38.43,38.43,0,0,1,8.69-6.79,88,88,0,0,1,20.43-8.32A164,164,0,0,1,658.37,407a170.13,170.13,0,0,1,43.83,5.3,86.17,86.17,0,0,1,20.61,8.14,36.43,36.43,0,0,1,8.81,6.89,13.78,13.78,0,0,1-.18,20.39,29.79,29.79,0,0,1-4.2,3.66,44.48,44.48,0,0,1-4.65,3,69.93,69.93,0,0,1-10,4.59c-3.45,1.28-6.95,2.43-10.51,3.36A180.5,180.5,0,0,1,658.37,468c-14.71.05-29.52-1.43-43.74-5.4a87.49,87.49,0,0,1-20.43-8.31,38.34,38.34,0,0,1-8.7-6.77A15,15,0,0,1,581.16,437.62Z" transform="translate(-69.67 -22.02)"/><path class="cls-6" d="M735.55,437.62l.24,13c0,1.09.06,2.16,0,3.26a12.23,12.23,0,0,1-.53,3.29,16.58,16.58,0,0,1-3.24,5.76,27.21,27.21,0,0,1-4.82,4.47,43.83,43.83,0,0,1-5.52,3.54,72,72,0,0,1-12,5.12,142.83,142.83,0,0,1-25.41,5.49,224.55,224.55,0,0,1-25.92,1.83,186.36,186.36,0,0,1-26-1.49,131.1,131.1,0,0,1-25.4-5.72A72.25,72.25,0,0,1,595,471a43.8,43.8,0,0,1-5.51-3.55,28.13,28.13,0,0,1-4.82-4.5,16.53,16.53,0,0,1-3.22-5.76,11.89,11.89,0,0,1-.52-3.29c0-1.1,0-2.17,0-3.26l.24-13h.12l.23,13c0,1.08,0,2.18.07,3.24a10.83,10.83,0,0,0,.58,3.08,16.05,16.05,0,0,0,3.19,5.41,27,27,0,0,0,4.72,4.26,42.4,42.4,0,0,0,5.45,3.39,77.27,77.27,0,0,0,11.84,5,143.86,143.86,0,0,0,25.16,5.77,200.6,200.6,0,0,0,25.81,1.94c17.26.18,34.72-1.92,51-7.6A77.37,77.37,0,0,0,721.21,470a44.23,44.23,0,0,0,5.44-3.4,26.7,26.7,0,0,0,4.71-4.29,16.39,16.39,0,0,0,3.19-5.41,11.17,11.17,0,0,0,.57-3.08c.06-1.06,0-2.16.06-3.24l.25-13Z" transform="translate(-69.67 -22.02)"/><path class="cls-7" d="M632.54,433.79h6.53c1.07-6.46,5.72-9.92,10.68-9.92,5.58,0,8.85,3.27,11.49,9.74,2.26,5.46,3.89,7.78,7.15,7.78,2.52,0,5.4-1.82,5.4-6.65a15.26,15.26,0,0,0-2.13-7.92l4.14-1.56a16.74,16.74,0,0,1,2.2,8.16h6.09v3.89h-6.34c-.94,5.78-4.9,9.48-10.11,9.48-5.46,0-8.35-4-10.86-10.36-1.89-4.65-4-7.09-7.47-7.09s-6.16,3-6.16,7.47a16.81,16.81,0,0,0,2.7,9l-4.2,1.51a18.37,18.37,0,0,1-2.77-9.61h-6.34Z" transform="translate(-69.67 -22.02)"/><ellipse class="cls-4" cx="581.94" cy="407.45" rx="77.12" ry="29.58"/><rect class="cls-4" x="504.83" y="391.61" width="154.23" height="15.85"/><ellipse class="cls-5" cx="581.94" cy="391.61" rx="77.12" ry="29.58"/><path d="M574.6,413.63a14.68,14.68,0,0,0,4.39,9.7,34.94,34.94,0,0,0,8.71,6.55,85.74,85.74,0,0,0,20.49,7.54,169.21,169.21,0,0,0,21.56,3.7c3.63.39,7.27.67,10.91.91s7.3.31,11,.35a202.75,202.75,0,0,0,21.9-.95c3.63-.38,7.26-.83,10.87-1.44s7.18-1.39,10.73-2.3a82.11,82.11,0,0,0,20.37-7.89,34.78,34.78,0,0,0,8.56-6.65,12.65,12.65,0,0,0-.18-18.88,27.73,27.73,0,0,0-4.05-3.51,42.25,42.25,0,0,0-4.54-2.92,87.41,87.41,0,0,0-20.31-7.7,152.12,152.12,0,0,0-21.51-3.83,206.86,206.86,0,0,0-21.84-1.23,212.6,212.6,0,0,0-21.85,1.14,165.31,165.31,0,0,0-21.56,3.64,85.51,85.51,0,0,0-20.5,7.53,35.08,35.08,0,0,0-8.71,6.54A14.7,14.7,0,0,0,574.6,413.63Zm-.2,0c0-3.75,1.86-7.24,4.34-9.94a38.11,38.11,0,0,1,8.69-6.78,88,88,0,0,1,20.43-8.32A163.54,163.54,0,0,1,651.61,383a169.26,169.26,0,0,1,43.83,5.3,85.76,85.76,0,0,1,20.61,8.14,36.43,36.43,0,0,1,8.81,6.89,13.77,13.77,0,0,1-.18,20.38,29.23,29.23,0,0,1-4.2,3.67,44.48,44.48,0,0,1-4.65,3,71.56,71.56,0,0,1-10,4.59c-3.45,1.28-6.95,2.42-10.51,3.36A180.49,180.49,0,0,1,651.61,444a160.24,160.24,0,0,1-43.74-5.4,87,87,0,0,1-20.43-8.3,38.38,38.38,0,0,1-8.7-6.78A15,15,0,0,1,574.4,413.63Z" transform="translate(-69.67 -22.02)"/><path class="cls-6" d="M728.79,413.63l.24,13c0,1.09.05,2.15,0,3.25a12.17,12.17,0,0,1-.53,3.29,16.54,16.54,0,0,1-3.24,5.77,28,28,0,0,1-4.82,4.47,44.49,44.49,0,0,1-5.52,3.53,72.45,72.45,0,0,1-12,5.13,142.83,142.83,0,0,1-25.41,5.49,224.55,224.55,0,0,1-25.92,1.83,189.47,189.47,0,0,1-26-1.49,131.84,131.84,0,0,1-25.4-5.72,74,74,0,0,1-12-5.19,45,45,0,0,1-5.51-3.56,27.68,27.68,0,0,1-4.82-4.49,16.49,16.49,0,0,1-3.22-5.77,12.17,12.17,0,0,1-.53-3.29c0-1.1,0-2.16,0-3.25l.24-13h.11l.24,13c0,1.08,0,2.17.07,3.23a10.89,10.89,0,0,0,.58,3.09,16,16,0,0,0,3.19,5.4,26.62,26.62,0,0,0,4.72,4.27A42.33,42.33,0,0,0,588.8,446a77.31,77.31,0,0,0,11.84,5,144.77,144.77,0,0,0,25.16,5.77,202.39,202.39,0,0,0,25.81,1.93c17.26.19,34.72-1.91,51-7.59A79.85,79.85,0,0,0,714.45,446a43.13,43.13,0,0,0,5.44-3.41,26.26,26.26,0,0,0,4.71-4.28,16.24,16.24,0,0,0,3.18-5.42,10.76,10.76,0,0,0,.58-3.08c.06-1.06,0-2.15.06-3.23l.25-13Z" transform="translate(-69.67 -22.02)"/><path class="cls-7" d="M625.78,409.8h6.53c1.07-6.47,5.71-9.92,10.67-9.92,5.59,0,8.86,3.27,11.49,9.73,2.27,5.46,3.9,7.79,7.16,7.79,2.51,0,5.4-1.82,5.4-6.66a15.21,15.21,0,0,0-2.13-7.91l4.14-1.57a16.78,16.78,0,0,1,2.2,8.16h6.09v3.9H671c-.94,5.77-4.9,9.48-10.11,9.48-5.46,0-8.35-4-10.86-10.36-1.89-4.65-4-7.1-7.47-7.1s-6.16,3-6.16,7.47a16.82,16.82,0,0,0,2.7,9.05l-4.21,1.5a18.43,18.43,0,0,1-2.76-9.6h-6.34Z" transform="translate(-69.67 -22.02)"/><ellipse class="cls-4" cx="567.69" cy="391.84" rx="77.12" ry="29.58"/><rect class="cls-4" x="490.57" y="375.99" width="154.23" height="15.85"/><ellipse class="cls-5" cx="567.69" cy="375.99" rx="77.12" ry="29.58"/><path d="M560.34,398a14.7,14.7,0,0,0,4.39,9.71,34.9,34.9,0,0,0,8.71,6.54,85.74,85.74,0,0,0,20.49,7.54,167.46,167.46,0,0,0,21.56,3.7c3.63.39,7.27.68,10.92.91s7.29.31,10.94.35a202.75,202.75,0,0,0,21.9-.95c3.63-.37,7.27-.82,10.87-1.44s7.19-1.39,10.73-2.3a81.79,81.79,0,0,0,20.38-7.89,34.87,34.87,0,0,0,8.55-6.64c2.41-2.65,4.17-6,4.14-9.53a14.28,14.28,0,0,0-4.32-9.36,28.34,28.34,0,0,0-4.05-3.51,45.57,45.57,0,0,0-4.54-2.92,87.86,87.86,0,0,0-20.31-7.7,153.3,153.3,0,0,0-21.51-3.83,206.86,206.86,0,0,0-21.84-1.23,212.6,212.6,0,0,0-21.85,1.14,164,164,0,0,0-21.56,3.65,85.26,85.26,0,0,0-20.49,7.52,35,35,0,0,0-8.72,6.54A14.77,14.77,0,0,0,560.34,398Zm-.2,0a15,15,0,0,1,4.34-9.93,38.43,38.43,0,0,1,8.69-6.79A88,88,0,0,1,593.6,373a164,164,0,0,1,43.75-5.57,170.13,170.13,0,0,1,43.83,5.3,85.6,85.6,0,0,1,20.61,8.14,36.67,36.67,0,0,1,8.82,6.89,13.79,13.79,0,0,1-.19,20.39,30.28,30.28,0,0,1-4.19,3.66,45.69,45.69,0,0,1-4.66,3,69.93,69.93,0,0,1-10,4.59c-3.45,1.28-6.95,2.43-10.5,3.36a180.65,180.65,0,0,1-43.68,5.68c-14.71.05-29.52-1.43-43.74-5.4a87.49,87.49,0,0,1-20.43-8.31,38.34,38.34,0,0,1-8.7-6.77C562,405.24,560.13,401.76,560.14,398Z" transform="translate(-69.67 -22.02)"/><path class="cls-6" d="M714.53,398l.24,13c0,1.09.06,2.16,0,3.26a12.23,12.23,0,0,1-.53,3.29A16.72,16.72,0,0,1,711,423.3a27.62,27.62,0,0,1-4.83,4.47,43.83,43.83,0,0,1-5.52,3.54,72,72,0,0,1-12,5.12,142.83,142.83,0,0,1-25.41,5.49,224.55,224.55,0,0,1-25.92,1.83,186.36,186.36,0,0,1-26-1.49,131.84,131.84,0,0,1-25.4-5.72,72.62,72.62,0,0,1-12-5.19,43.8,43.8,0,0,1-5.51-3.55,27.7,27.7,0,0,1-4.81-4.5,16.4,16.4,0,0,1-3.23-5.76,11.89,11.89,0,0,1-.52-3.29c0-1.1,0-2.17,0-3.26l.24-13h.12l.23,13c0,1.08,0,2.18.07,3.24a10.83,10.83,0,0,0,.58,3.08,16.22,16.22,0,0,0,3.19,5.41,27,27,0,0,0,4.72,4.26,43.1,43.1,0,0,0,5.45,3.39,77.27,77.27,0,0,0,11.84,5,143.86,143.86,0,0,0,25.16,5.77,200.6,200.6,0,0,0,25.81,1.94c17.26.18,34.72-1.92,51-7.6a77.37,77.37,0,0,0,11.82-5.11,43.49,43.49,0,0,0,5.44-3.4,26.76,26.76,0,0,0,4.72-4.29,16.54,16.54,0,0,0,3.18-5.41,11.17,11.17,0,0,0,.57-3.08c.06-1.06,0-2.16.07-3.24l.24-13Z" transform="translate(-69.67 -22.02)"/><path class="cls-7" d="M611.52,394.18h6.53c1.07-6.46,5.72-9.92,10.68-9.92,5.58,0,8.85,3.27,11.49,9.74,2.26,5.46,3.89,7.78,7.15,7.78,2.52,0,5.4-1.82,5.4-6.65a15.26,15.26,0,0,0-2.13-7.92l4.14-1.56a16.64,16.64,0,0,1,2.2,8.16h6.09v3.89h-6.34c-.94,5.78-4.9,9.48-10.11,9.48-5.46,0-8.35-3.95-10.86-10.36-1.89-4.65-4-7.09-7.47-7.09s-6.16,3-6.16,7.47a16.81,16.81,0,0,0,2.7,9l-4.2,1.51a18.37,18.37,0,0,1-2.77-9.61h-6.34Z" transform="translate(-69.67 -22.02)"/><ellipse class="cls-4" cx="578.31" cy="368.3" rx="77.12" ry="29.58"/><rect class="cls-4" x="501.2" y="352.46" width="154.23" height="15.85"/><ellipse class="cls-5" cx="578.31" cy="352.46" rx="77.12" ry="29.58"/><path d="M571,374.48a14.71,14.71,0,0,0,4.38,9.7,34.88,34.88,0,0,0,8.71,6.55,86,86,0,0,0,20.5,7.54,169.21,169.21,0,0,0,21.56,3.7c3.63.39,7.27.68,10.91.91s7.3.31,11,.35a202.75,202.75,0,0,0,21.9-1c3.63-.38,7.26-.83,10.87-1.44s7.18-1.39,10.73-2.3a82.26,82.26,0,0,0,20.37-7.89,34.78,34.78,0,0,0,8.56-6.65,12.65,12.65,0,0,0-.18-18.88,27.73,27.73,0,0,0-4.05-3.51,41.41,41.41,0,0,0-4.55-2.92,87.16,87.16,0,0,0-20.3-7.7,152.12,152.12,0,0,0-21.51-3.83A206.86,206.86,0,0,0,648,345.93a212.6,212.6,0,0,0-21.85,1.14,165.31,165.31,0,0,0-21.56,3.64,85.51,85.51,0,0,0-20.5,7.53,35.08,35.08,0,0,0-8.71,6.54A14.66,14.66,0,0,0,571,374.48Zm-.2,0c0-3.75,1.86-7.24,4.34-9.94a38.11,38.11,0,0,1,8.69-6.78,88,88,0,0,1,20.43-8.32A163.54,163.54,0,0,1,648,343.87a169.18,169.18,0,0,1,43.82,5.3,85.67,85.67,0,0,1,20.62,8.14,36.43,36.43,0,0,1,8.81,6.89,13.77,13.77,0,0,1-.18,20.38,29.23,29.23,0,0,1-4.2,3.67,44.48,44.48,0,0,1-4.65,3,71.56,71.56,0,0,1-10,4.59c-3.45,1.28-6.95,2.42-10.51,3.36A180,180,0,0,1,648,404.88a160.24,160.24,0,0,1-43.74-5.4,87,87,0,0,1-20.43-8.3,38.38,38.38,0,0,1-8.7-6.78A15,15,0,0,1,570.77,374.48Z" transform="translate(-69.67 -22.02)"/><path class="cls-6" d="M725.2,374.48q.27,6.48.42,13c0,1.09.07,2.14,0,3.26a12.39,12.39,0,0,1-.51,3.37A16.68,16.68,0,0,1,721.9,400a27.91,27.91,0,0,1-4.85,4.56,43.32,43.32,0,0,1-5.56,3.56,68.06,68.06,0,0,1-12.07,5.13,144.86,144.86,0,0,1-25.51,5.28A244,244,0,0,1,648,420.45a175.46,175.46,0,0,1-26-1.33,130.67,130.67,0,0,1-25.5-5.67,73.07,73.07,0,0,1-12-5.28,44.58,44.58,0,0,1-5.54-3.61,28.39,28.39,0,0,1-4.85-4.58,16.59,16.59,0,0,1-3.23-5.9,12.26,12.26,0,0,1-.51-3.36c0-1.12,0-2.17.05-3.26q.15-6.49.41-13h.2q.24,6.48.4,13c0,1.07,0,2.18.1,3.22a10.59,10.59,0,0,0,.6,3,16.06,16.06,0,0,0,3.18,5.28,26.42,26.42,0,0,0,4.69,4.19,42.71,42.71,0,0,0,5.42,3.32,77.42,77.42,0,0,0,11.8,4.95c16.28,5.42,33.6,7.46,50.82,7.92a162,162,0,0,0,25.85-1.48c4.27-.62,8.51-1.47,12.7-2.5a125.34,125.34,0,0,0,12.35-3.71,86,86,0,0,0,11.76-5.11,44,44,0,0,0,5.4-3.37,27.17,27.17,0,0,0,4.68-4.2,16.18,16.18,0,0,0,3.17-5.29,11,11,0,0,0,.59-3c.07-1,.06-2.15.09-3.22q.15-6.49.43-13Z" transform="translate(-69.67 -22.02)"/><path class="cls-7" d="M622.15,370.65h6.53c1.07-6.47,5.71-9.92,10.67-9.92,5.59,0,8.86,3.27,11.49,9.73,2.26,5.46,3.9,7.79,7.16,7.79,2.51,0,5.4-1.82,5.4-6.66a15.21,15.21,0,0,0-2.13-7.91l4.14-1.57a16.78,16.78,0,0,1,2.2,8.16h6.09v3.9h-6.34c-.94,5.77-4.9,9.48-10.11,9.48-5.46,0-8.35-4-10.86-10.36-1.89-4.65-4-7.1-7.48-7.1s-6.15,3-6.15,7.47a16.73,16.73,0,0,0,2.7,9l-4.21,1.5a18.24,18.24,0,0,1-2.76-9.6h-6.34Z" transform="translate(-69.67 -22.02)"/><ellipse class="cls-4" cx="566.09" cy="350.65" rx="77.12" ry="29.58"/><rect class="cls-4" x="488.98" y="334.8" width="154.23" height="15.85"/><ellipse class="cls-5" cx="566.09" cy="334.8" rx="77.12" ry="29.58"/><path d="M558.74,356.82a14.8,14.8,0,0,0,4.39,9.71,35.08,35.08,0,0,0,8.71,6.54,86,86,0,0,0,20.5,7.55,169.21,169.21,0,0,0,21.56,3.7c3.63.38,7.27.67,10.91.91s7.3.31,11,.34a200,200,0,0,0,21.89-.94c3.64-.38,7.27-.83,10.88-1.45s7.18-1.39,10.73-2.29A82.26,82.26,0,0,0,699.63,373a35.21,35.21,0,0,0,8.56-6.65,14.37,14.37,0,0,0,4.14-9.53,14.22,14.22,0,0,0-4.33-9.35,28.25,28.25,0,0,0-4-3.52,45.72,45.72,0,0,0-4.55-2.92,88,88,0,0,0-20.31-7.7,153.16,153.16,0,0,0-21.5-3.83,209.56,209.56,0,0,0-21.84-1.22,212.59,212.59,0,0,0-21.85,1.13,165.77,165.77,0,0,0-21.57,3.65,85.6,85.6,0,0,0-20.49,7.53,34.86,34.86,0,0,0-8.71,6.53A14.74,14.74,0,0,0,558.74,356.82Zm-.2,0c0-3.74,1.87-7.23,4.34-9.93a38.71,38.71,0,0,1,8.7-6.79A88.36,88.36,0,0,1,592,331.79a163.55,163.55,0,0,1,43.75-5.58,170,170,0,0,1,43.82,5.3,86.11,86.11,0,0,1,20.62,8.15,36.63,36.63,0,0,1,8.81,6.88c2.51,2.77,4.45,6.39,4.41,10.28a15.35,15.35,0,0,1-4.59,10.11,29.79,29.79,0,0,1-4.2,3.66,47.41,47.41,0,0,1-4.65,3,71.56,71.56,0,0,1-10,4.59c-3.45,1.27-7,2.42-10.51,3.36a180.56,180.56,0,0,1-43.67,5.67,160.2,160.2,0,0,1-43.74-5.4,88,88,0,0,1-20.44-8.3,38.61,38.61,0,0,1-8.69-6.78A15,15,0,0,1,558.54,356.82Z" transform="translate(-69.67 -22.02)"/><path class="cls-6" d="M713,356.82q.27,6.49.42,13c0,1.09.07,2.14,0,3.26a12.26,12.26,0,0,1-.51,3.36,16.63,16.63,0,0,1-3.25,5.9,27.91,27.91,0,0,1-4.85,4.56,45.17,45.17,0,0,1-5.56,3.56,68.06,68.06,0,0,1-12.07,5.13,145,145,0,0,1-25.51,5.28,244.24,244.24,0,0,1-25.93,1.94,175.53,175.53,0,0,1-26-1.33,131.46,131.46,0,0,1-25.49-5.67,73.92,73.92,0,0,1-12-5.28,42.85,42.85,0,0,1-5.54-3.62,28,28,0,0,1-4.85-4.57,16.59,16.59,0,0,1-3.23-5.9,12.38,12.38,0,0,1-.51-3.36c0-1.12,0-2.17,0-3.26q.15-6.49.4-13h.2q.25,6.49.41,13c0,1.07,0,2.18.1,3.22a10.66,10.66,0,0,0,.6,3,16.17,16.17,0,0,0,3.18,5.28,26,26,0,0,0,4.69,4.18,42.78,42.78,0,0,0,5.42,3.33,78.76,78.76,0,0,0,11.79,4.95c16.29,5.42,33.6,7.46,50.83,7.92a161.81,161.81,0,0,0,25.84-1.49q6.42-.93,12.7-2.5A122.1,122.1,0,0,0,686.66,394a83.58,83.58,0,0,0,11.76-5.11,40.92,40.92,0,0,0,5.39-3.37,26.09,26.09,0,0,0,4.69-4.2,16,16,0,0,0,3.17-5.28,11.08,11.08,0,0,0,.59-3c.07-1,.06-2.15.09-3.22q.15-6.49.43-13Z" transform="translate(-69.67 -22.02)"/><path class="cls-7" d="M609.93,353h6.53c1.07-6.47,5.71-9.92,10.67-9.92,5.59,0,8.86,3.26,11.49,9.73,2.26,5.46,3.9,7.78,7.16,7.78,2.51,0,5.4-1.82,5.4-6.65a15.21,15.21,0,0,0-2.13-7.91l4.14-1.57a16.74,16.74,0,0,1,2.2,8.16h6.09v3.89h-6.34c-.95,5.78-4.9,9.48-10.11,9.48-5.47,0-8.35-3.95-10.87-10.36-1.88-4.64-4-7.09-7.47-7.09s-6.15,3-6.15,7.47a16.69,16.69,0,0,0,2.7,9L619,366.56a18.28,18.28,0,0,1-2.76-9.61h-6.34Z" transform="translate(-69.67 -22.02)"/><ellipse class="cls-4" cx="569.99" cy="328.22" rx="77.12" ry="29.58"/><rect class="cls-4" x="492.87" y="312.38" width="154.23" height="15.85"/><ellipse class="cls-5" cx="569.99" cy="312.38" rx="77.12" ry="29.58"/><path d="M562.64,334.4a14.68,14.68,0,0,0,4.39,9.7,35.18,35.18,0,0,0,8.71,6.55,85.74,85.74,0,0,0,20.49,7.54,169.21,169.21,0,0,0,21.56,3.7c3.63.39,7.27.67,10.91.91s7.3.31,10.95.35a202.75,202.75,0,0,0,21.9-.95c3.63-.38,7.27-.83,10.87-1.44s7.18-1.4,10.73-2.3a82.11,82.11,0,0,0,20.37-7.89,34.78,34.78,0,0,0,8.56-6.65A12.65,12.65,0,0,0,711.9,325a28.41,28.41,0,0,0-4-3.52,43.76,43.76,0,0,0-4.54-2.91,87.41,87.41,0,0,0-20.31-7.7,152.12,152.12,0,0,0-21.51-3.83,206.86,206.86,0,0,0-21.84-1.23A212.6,212.6,0,0,0,617.8,307a163.93,163.93,0,0,0-21.56,3.64,85.51,85.51,0,0,0-20.5,7.53A35.08,35.08,0,0,0,567,324.7,14.75,14.75,0,0,0,562.64,334.4Zm-.2,0c0-3.75,1.86-7.24,4.34-9.94a38.11,38.11,0,0,1,8.69-6.78,88,88,0,0,1,20.43-8.32,163.19,163.19,0,0,1,43.75-5.57,169.26,169.26,0,0,1,43.83,5.3,85.76,85.76,0,0,1,20.61,8.14,36.43,36.43,0,0,1,8.81,6.89,13.77,13.77,0,0,1-.18,20.38,28.55,28.55,0,0,1-4.2,3.66,43,43,0,0,1-4.65,3,71.56,71.56,0,0,1-10,4.59c-3.45,1.28-7,2.42-10.51,3.36a180.49,180.49,0,0,1-43.67,5.67,160.24,160.24,0,0,1-43.74-5.4,87.46,87.46,0,0,1-20.43-8.3,38.38,38.38,0,0,1-8.7-6.78A15,15,0,0,1,562.44,334.4Z" transform="translate(-69.67 -22.02)"/><path class="cls-6" d="M716.87,334.4q.27,6.48.42,13c0,1.09.07,2.14.05,3.26a12.66,12.66,0,0,1-.52,3.36,16.61,16.61,0,0,1-3.24,5.9,28.33,28.33,0,0,1-4.86,4.56,43.32,43.32,0,0,1-5.56,3.56,68.06,68.06,0,0,1-12.07,5.13,144.94,144.94,0,0,1-25.5,5.28,244.43,244.43,0,0,1-25.94,1.94,175.46,175.46,0,0,1-26-1.33,131.4,131.4,0,0,1-25.5-5.67,73.07,73.07,0,0,1-12-5.28,44.58,44.58,0,0,1-5.54-3.61,28.39,28.39,0,0,1-4.85-4.58,16.75,16.75,0,0,1-3.23-5.9,12.26,12.26,0,0,1-.51-3.36c0-1.12,0-2.17,0-3.26q.16-6.5.41-13h.2q.24,6.48.4,13c0,1.07,0,2.18.1,3.22a11,11,0,0,0,.6,3,16.06,16.06,0,0,0,3.18,5.28,26.42,26.42,0,0,0,4.69,4.19A42.71,42.71,0,0,0,577,366.4a77.42,77.42,0,0,0,11.8,5c16.28,5.42,33.6,7.46,50.82,7.92a162,162,0,0,0,25.85-1.48q6.4-.94,12.7-2.5a122,122,0,0,0,12.35-3.72,84.71,84.71,0,0,0,11.76-5.1,42.88,42.88,0,0,0,5.4-3.38,26.71,26.71,0,0,0,4.68-4.19,16.18,16.18,0,0,0,3.17-5.29,11,11,0,0,0,.59-3c.07-1,.06-2.15.09-3.22q.15-6.5.43-13Z" transform="translate(-69.67 -22.02)"/><path class="cls-7" d="M613.82,330.57h6.53c1.07-6.47,5.71-9.92,10.68-9.92,5.58,0,8.85,3.26,11.48,9.73,2.27,5.46,3.9,7.79,7.16,7.79,2.51,0,5.4-1.82,5.4-6.66a15.21,15.21,0,0,0-2.13-7.91l4.14-1.57a16.78,16.78,0,0,1,2.2,8.16h6.09v3.9H659c-.94,5.77-4.9,9.48-10.11,9.48-5.46,0-8.35-4-10.86-10.36-1.89-4.65-4-7.1-7.47-7.1s-6.16,3-6.16,7.47a16.78,16.78,0,0,0,2.7,9l-4.2,1.51a18.33,18.33,0,0,1-2.77-9.6h-6.34Z" transform="translate(-69.67 -22.02)"/><ellipse class="cls-4" cx="551.18" cy="309.23" rx="77.12" ry="29.58"/><rect class="cls-4" x="474.06" y="293.39" width="154.23" height="15.85"/><ellipse class="cls-5" cx="551.18" cy="293.39" rx="77.12" ry="29.58"/><path d="M543.83,315.41a14.73,14.73,0,0,0,4.39,9.7,34.7,34.7,0,0,0,8.71,6.55,85.9,85.9,0,0,0,20.49,7.54A169.36,169.36,0,0,0,599,342.9c3.63.39,7.26.68,10.91.91s7.29.31,11,.35a202.68,202.68,0,0,0,21.89-1c3.64-.38,7.27-.83,10.87-1.44s7.19-1.39,10.73-2.3a82.18,82.18,0,0,0,20.38-7.89,35,35,0,0,0,8.56-6.65,12.66,12.66,0,0,0-.19-18.88,27.73,27.73,0,0,0-4.05-3.51,42.25,42.25,0,0,0-4.54-2.92,87.41,87.41,0,0,0-20.31-7.7,152,152,0,0,0-21.5-3.83,207,207,0,0,0-21.84-1.23A212.46,212.46,0,0,0,599,288a165.75,165.75,0,0,0-21.57,3.64,85.28,85.28,0,0,0-20.49,7.53,34.9,34.9,0,0,0-8.71,6.54A14.72,14.72,0,0,0,543.83,315.41Zm-.2,0a15,15,0,0,1,4.34-9.94,38.11,38.11,0,0,1,8.69-6.78,87.85,87.85,0,0,1,20.44-8.32,163.49,163.49,0,0,1,43.75-5.57,169.18,169.18,0,0,1,43.82,5.3,85.83,85.83,0,0,1,20.62,8.14,36.82,36.82,0,0,1,8.81,6.89,15.5,15.5,0,0,1,4.41,10.28,15.33,15.33,0,0,1-4.6,10.1,29.15,29.15,0,0,1-4.19,3.67,46.68,46.68,0,0,1-4.65,3A71.67,71.67,0,0,1,675,336.78c-3.45,1.28-6.95,2.42-10.5,3.36a180.06,180.06,0,0,1-43.67,5.67,160.27,160.27,0,0,1-43.75-5.4,87,87,0,0,1-20.43-8.3,38.11,38.11,0,0,1-8.69-6.78A15,15,0,0,1,543.63,315.41Z" transform="translate(-69.67 -22.02)"/><path class="cls-6" d="M698.06,315.41q.29,6.48.43,13c0,1.09.07,2.14,0,3.26A12,12,0,0,1,698,335a16.65,16.65,0,0,1-3.24,5.89,28.27,28.27,0,0,1-4.85,4.56,44.13,44.13,0,0,1-5.57,3.56,68.06,68.06,0,0,1-12.07,5.13,144.94,144.94,0,0,1-25.5,5.28,244.44,244.44,0,0,1-25.93,1.94,175.53,175.53,0,0,1-26-1.33,131,131,0,0,1-25.5-5.67,73.44,73.44,0,0,1-12-5.28,45.33,45.33,0,0,1-5.54-3.61,28.33,28.33,0,0,1-4.84-4.58,16.61,16.61,0,0,1-3.24-5.9,11.88,11.88,0,0,1-.5-3.36c0-1.12,0-2.17,0-3.26q.16-6.5.41-13h.2q.25,6.48.41,13c0,1.07,0,2.18.09,3.22a11.33,11.33,0,0,0,.6,3,16.06,16.06,0,0,0,3.18,5.28,26.48,26.48,0,0,0,4.7,4.19,42.59,42.59,0,0,0,5.41,3.32,77.42,77.42,0,0,0,11.8,4.95c16.29,5.42,33.6,7.46,50.83,7.92a161.87,161.87,0,0,0,25.84-1.48c4.28-.62,8.52-1.47,12.7-2.5a124.72,124.72,0,0,0,12.36-3.71,85.85,85.85,0,0,0,11.75-5.11,43.25,43.25,0,0,0,5.4-3.37,27.23,27.23,0,0,0,4.69-4.2,16.15,16.15,0,0,0,3.16-5.29,10.65,10.65,0,0,0,.59-3c.08-1,.06-2.15.1-3.22q.15-6.5.42-13Z" transform="translate(-69.67 -22.02)"/><path class="cls-7" d="M595,311.58h6.53c1.07-6.47,5.72-9.92,10.68-9.92,5.59,0,8.85,3.27,11.49,9.73,2.26,5.46,3.89,7.79,7.16,7.79,2.51,0,5.4-1.82,5.4-6.66a15.19,15.19,0,0,0-2.14-7.91l4.15-1.57a16.79,16.79,0,0,1,2.19,8.16h6.09v3.9h-6.34c-.94,5.77-4.9,9.48-10.11,9.48-5.46,0-8.35-4-10.86-10.36-1.88-4.65-4-7.1-7.47-7.1s-6.15,3-6.15,7.47a16.73,16.73,0,0,0,2.7,9.05l-4.21,1.5a18.24,18.24,0,0,1-2.76-9.6H595Z" transform="translate(-69.67 -22.02)"/><ellipse class="cls-4" cx="583.78" cy="283.35" rx="77.12" ry="29.58"/><rect class="cls-4" x="506.67" y="267.51" width="154.23" height="15.85"/><ellipse class="cls-5" cx="583.78" cy="267.51" rx="77.12" ry="29.58"/><path d="M730.67,289.53a15,15,0,0,1-4.35,9.92,38.33,38.33,0,0,1-8.69,6.78,87.36,87.36,0,0,1-20.44,8.3,160.2,160.2,0,0,1-43.74,5.4,180.56,180.56,0,0,1-43.67-5.67c-3.56-.94-7.06-2.08-10.51-3.36a72.08,72.08,0,0,1-10-4.59,44,44,0,0,1-4.65-3,28,28,0,0,1-4.19-3.66,15.31,15.31,0,0,1-4.6-10.1c0-3.9,1.9-7.52,4.41-10.28a36.43,36.43,0,0,1,8.81-6.89,85.67,85.67,0,0,1,20.62-8.14,169.18,169.18,0,0,1,43.82-5.3,163.08,163.08,0,0,1,43.75,5.57,88,88,0,0,1,20.43,8.32,38.38,38.38,0,0,1,8.7,6.78C728.8,282.29,730.68,285.78,730.67,289.53Zm-.2,0a14.72,14.72,0,0,0-4.4-9.7,34.9,34.9,0,0,0-8.71-6.54,85.44,85.44,0,0,0-20.49-7.53,164.07,164.07,0,0,0-21.57-3.64A212.6,212.6,0,0,0,653.45,261a206.86,206.86,0,0,0-21.84,1.23,151.73,151.73,0,0,0-21.5,3.83,87.24,87.24,0,0,0-20.31,7.7,45,45,0,0,0-4.55,2.91,28.89,28.89,0,0,0-4,3.52,12.64,12.64,0,0,0-.19,18.88,35,35,0,0,0,8.56,6.65A82.18,82.18,0,0,0,610,313.59q5.31,1.35,10.72,2.3c3.61.61,7.24,1.06,10.88,1.44a202.57,202.57,0,0,0,21.89.95c3.65,0,7.3-.13,10.95-.35s7.28-.52,10.91-.91a168.91,168.91,0,0,0,21.56-3.7,86,86,0,0,0,20.5-7.54,35.18,35.18,0,0,0,8.71-6.55A14.77,14.77,0,0,0,730.47,289.53Z" transform="translate(-69.67 -22.02)"/><path class="cls-6" d="M576.43,289.53q.29,6.48.43,13c0,1.07,0,2.18.09,3.22a11,11,0,0,0,.59,3,16.18,16.18,0,0,0,3.17,5.29,26.42,26.42,0,0,0,4.69,4.19,42.06,42.06,0,0,0,5.39,3.38,84.71,84.71,0,0,0,11.76,5.1,122.15,122.15,0,0,0,12.36,3.72q6.27,1.54,12.7,2.5a161.8,161.8,0,0,0,25.84,1.48c17.23-.46,34.54-2.5,50.83-7.92a77.73,77.73,0,0,0,11.79-5,42.71,42.71,0,0,0,5.42-3.32,26.84,26.84,0,0,0,4.7-4.19,16.21,16.21,0,0,0,3.17-5.28,10.59,10.59,0,0,0,.6-3c.08-1,.06-2.15.1-3.22q.16-6.5.41-13h.2q.24,6.48.4,13c0,1.09.08,2.14,0,3.26a12.26,12.26,0,0,1-.51,3.36,16.43,16.43,0,0,1-3.23,5.9,28,28,0,0,1-4.85,4.58,43.85,43.85,0,0,1-5.54,3.61,73.07,73.07,0,0,1-12,5.28,131.46,131.46,0,0,1-25.49,5.67,175.53,175.53,0,0,1-26,1.33,244.24,244.24,0,0,1-25.93-1.94A145,145,0,0,1,602,328.28a68.06,68.06,0,0,1-12.07-5.13,44.75,44.75,0,0,1-5.56-3.56,27.91,27.91,0,0,1-4.85-4.56,16.63,16.63,0,0,1-3.25-5.9,12.26,12.26,0,0,1-.51-3.36c0-1.12,0-2.17,0-3.26q.15-6.5.42-13Z" transform="translate(-69.67 -22.02)"/><path class="cls-7" d="M679.28,289.66h-6.34a18.24,18.24,0,0,1-2.76,9.6L666,297.75a16.69,16.69,0,0,0,2.7-9c0-4.45-2.57-7.47-6.15-7.47s-5.59,2.45-7.47,7.1c-2.52,6.4-5.4,10.36-10.87,10.36-5.21,0-9.16-3.71-10.11-9.48h-6.34v-3.9h6.09a16.78,16.78,0,0,1,2.2-8.16l4.15,1.57a15.1,15.1,0,0,0-2.14,7.91c0,4.84,2.89,6.66,5.4,6.66,3.27,0,4.9-2.33,7.16-7.79,2.63-6.47,5.9-9.73,11.49-9.73,5,0,9.6,3.45,10.67,9.92h6.53Z" transform="translate(-69.67 -22.02)"/><ellipse class="cls-4" cx="742.66" cy="195.77" rx="48" ry="18.41" transform="translate(97.43 682.27) rotate(-56.23)"/><rect class="cls-4" x="690.56" y="188.1" width="95.99" height="9.86" transform="translate(97.88 677.64) rotate(-56.23)"/><ellipse class="cls-5" cx="734.46" cy="190.29" rx="48" ry="18.41" transform="translate(98.34 673.02) rotate(-56.23)"/><path d="M761.2,150.3a9.45,9.45,0,0,1,3.64,5.71,24,24,0,0,1,.57,6.86,55.1,55.1,0,0,1-2.65,13.51,93.7,93.7,0,0,1-12.3,24.6,113.22,113.22,0,0,1-18.24,20.54A57.82,57.82,0,0,1,721,229.44a24.83,24.83,0,0,1-6.54,2.31,8.8,8.8,0,0,1-10.89-7.06,22.59,22.59,0,0,1-.56-7,52.62,52.62,0,0,1,2.88-13.57,105.6,105.6,0,0,1,12.4-24.63,99.06,99.06,0,0,1,18.21-20.66A55.31,55.31,0,0,1,748,151.2a24.4,24.4,0,0,1,6.56-2.1A9.49,9.49,0,0,1,761.2,150.3Zm-.11.17a9.09,9.09,0,0,0-6.52-1.07,21.7,21.7,0,0,0-6.35,2.3,52.35,52.35,0,0,0-10.87,8.09,111.4,111.4,0,0,0-9.23,10,132.22,132.22,0,0,0-15,22.57,96.16,96.16,0,0,0-5.47,12.39,54.59,54.59,0,0,0-3.08,13.08,22.61,22.61,0,0,0,.31,6.58,7.64,7.64,0,0,0,9.43,6.53,21.19,21.19,0,0,0,6.36-2.08A50.56,50.56,0,0,0,731.79,221a86.66,86.66,0,0,0,9.32-9.93,126,126,0,0,0,8-11A130.77,130.77,0,0,0,761.57,176a52.79,52.79,0,0,0,3.31-13.14,21.53,21.53,0,0,0-.3-6.75A9.12,9.12,0,0,0,761.09,150.47Z" transform="translate(-69.67 -22.02)"/><path class="cls-6" d="M707.84,230.1c2.34,1.34,4.65,2.73,6.95,4.13.57.34,1.16.73,1.72,1a6.82,6.82,0,0,0,1.7.69,9.93,9.93,0,0,0,3.73.15,16.51,16.51,0,0,0,3.72-1,25.29,25.29,0,0,0,3.56-1.62,55.38,55.38,0,0,0,6.67-4.27,78.31,78.31,0,0,0,6.25-5,76.2,76.2,0,0,0,5.74-5.63,90.26,90.26,0,0,0,9.63-12.89c5.59-9.14,10.46-18.79,13.27-29a49.31,49.31,0,0,0,1.54-7.74,25.65,25.65,0,0,0,.17-3.91,16.71,16.71,0,0,0-.48-3.81,10.07,10.07,0,0,0-1.53-3.4,6.45,6.45,0,0,0-1.29-1.32c-.5-.4-1.08-.79-1.61-1.19-2.18-1.58-4.35-3.19-6.49-4.83l.11-.17q3.49,2,6.94,4.16c.58.36,1.14.68,1.73,1.08a7.72,7.72,0,0,1,1.62,1.45,10.48,10.48,0,0,1,2,3.79,22.6,22.6,0,0,1,.73,8.32,46.13,46.13,0,0,1-1.41,8.12,79.67,79.67,0,0,1-6,15.21,103.27,103.27,0,0,1-8.46,13.88q-4.75,6.58-10.06,12.71a93.13,93.13,0,0,1-11.45,11.54,40.5,40.5,0,0,1-6.87,4.51,22.15,22.15,0,0,1-7.93,2.58,10.76,10.76,0,0,1-4.28-.41,7.43,7.43,0,0,1-2-.94c-.59-.39-1.1-.79-1.66-1.18-2.17-1.6-4.34-3.2-6.48-4.85Z" transform="translate(-69.67 -22.02)"/><path class="cls-7" d="M743.47,177l-2.2,3.28a11.45,11.45,0,0,1,4,4.75l-2.24,1.66a10.4,10.4,0,0,0-3.74-4.53c-2.31-1.54-4.76-1.25-6,.6s-.66,3.74,1.09,6.32c2.44,3.51,3.49,6.38,1.6,9.2s-5.09,3.46-8.4,1.95l-2.2,3.28-2-1.34L725.5,199a10.45,10.45,0,0,1-3.47-4l2.25-1.6a9.39,9.39,0,0,0,3.35,3.85c2.51,1.67,4.45.8,5.32-.5,1.12-1.68.49-3.33-1.56-6.39-2.43-3.6-3-6.42-1.06-9.31,1.72-2.57,5.11-3.78,8.83-2.09l2.26-3.38Z" transform="translate(-69.67 -22.02)"/><ellipse class="cls-4" cx="563.66" cy="71.6" rx="18.41" ry="48" transform="translate(-62.58 163.89) rotate(-18.84)"/><rect class="cls-4" x="563.4" y="22.02" width="9.86" height="95.99" transform="translate(-61.82 165.31) rotate(-18.84)"/><ellipse class="cls-5" cx="572.99" cy="68.42" rx="18.41" ry="48" transform="translate(-61.05 166.73) rotate(-18.84)"/><path d="M588.53,113.94a9.45,9.45,0,0,1-6.75-.57,24,24,0,0,1-5.79-3.72,55,55,0,0,1-9.13-10.31,93.71,93.71,0,0,1-12.08-24.71,113.38,113.38,0,0,1-5.24-26.95,58,58,0,0,1,.53-13.74,24.28,24.28,0,0,1,2.14-6.6,9.7,9.7,0,0,1,5.1-4.86,9.83,9.83,0,0,1,7.12.49,22.84,22.84,0,0,1,5.92,3.82,53,53,0,0,1,9,10.53,105.6,105.6,0,0,1,12,24.81,99.24,99.24,0,0,1,5.36,27,55.5,55.5,0,0,1-.94,13.74,23.74,23.74,0,0,1-2.32,6.49A9.43,9.43,0,0,1,588.53,113.94Zm-.06-.19a9.1,9.1,0,0,0,4.8-4.52,21.46,21.46,0,0,0,2-6.45,52.53,52.53,0,0,0,.17-13.55,110.19,110.19,0,0,0-2.3-13.37,133,133,0,0,0-8.83-25.63,94.92,94.92,0,0,0-6.52-11.87A54.38,54.38,0,0,0,569.3,28a22.89,22.89,0,0,0-5.42-3.76A7.66,7.66,0,0,0,553,27.75a21.38,21.38,0,0,0-2.2,6.32,50.86,50.86,0,0,0-.58,13.56,87.47,87.47,0,0,0,2.24,13.44,126,126,0,0,0,3.94,13,131.28,131.28,0,0,0,11.55,24.55,53.33,53.33,0,0,0,8.43,10.61,21.68,21.68,0,0,0,5.55,3.86A9.12,9.12,0,0,0,588.47,113.75Z" transform="translate(-69.67 -22.02)"/><path class="cls-6" d="M557.52,23.09c-2.48,1.05-5,2-7.5,3-.62.24-1.29.48-1.87.73a7,7,0,0,0-1.58.94,9.92,9.92,0,0,0-2.38,2.87,16.33,16.33,0,0,0-1.48,3.55,25.8,25.8,0,0,0-.87,3.82,55.86,55.86,0,0,0-.66,7.89,76.37,76.37,0,0,0,.19,8,74.49,74.49,0,0,0,1,8,89.48,89.48,0,0,0,4.4,15.47c3.86,10,8.57,19.72,15,28.17a49.21,49.21,0,0,0,5.22,5.93,26.42,26.42,0,0,0,3,2.51,16.51,16.51,0,0,0,3.32,1.93,10.06,10.06,0,0,0,3.63.84,6.71,6.71,0,0,0,1.84-.21c.61-.16,1.28-.38,1.92-.57q3.87-1.16,7.78-2.22l.06.19c-2.49,1-5,2-7.52,3-.63.24-1.23.49-1.91.72a7.73,7.73,0,0,1-2.14.41,10.71,10.71,0,0,1-4.24-.69,22.46,22.46,0,0,1-7.05-4.48,46.43,46.43,0,0,1-5.6-6,79.29,79.29,0,0,1-8.46-14,102.57,102.57,0,0,1-5.89-15.15c-1.57-5.18-2.89-10.42-4-15.71a93.36,93.36,0,0,1-2.21-16.11,40.23,40.23,0,0,1,.58-8.19,22.19,22.19,0,0,1,2.77-7.87,10.43,10.43,0,0,1,2.92-3.15,7.44,7.44,0,0,1,1.94-1c.67-.23,1.3-.4,1.95-.6,2.59-.76,5.18-1.51,7.79-2.2Z" transform="translate(-69.67 -22.02)"/><path class="cls-7" d="M578.11,83.66l-1.27-3.73a11.47,11.47,0,0,1-6.22.3l0-2.78a10.42,10.42,0,0,0,5.87-.23c2.63-.9,3.89-3,3.17-5.13s-2.57-2.79-5.68-3c-4.28-.19-7.19-1.1-8.29-4.32s.34-6.14,3.55-7.86L568,53.21l2.29-.78L571.52,56a10.37,10.37,0,0,1,5.25-.34l-.09,2.75a9.44,9.44,0,0,0-5.09.34c-2.84,1-3.34,3-2.83,4.52.66,1.92,2.35,2.41,6,2.65,4.34.25,6.92,1.52,8.05,4.81,1,2.92-.11,6.35-3.7,8.28l1.31,3.85Z" transform="translate(-69.67 -22.02)"/><ellipse class="cls-4" cx="419.47" cy="181.89" rx="18.41" ry="48" transform="translate(-11.57 439.96) rotate(-61.22)"/><rect class="cls-4" x="416.91" y="129.57" width="9.86" height="95.99" transform="translate(-6.55 439.79) rotate(-61.22)"/><ellipse class="cls-5" cx="424.21" cy="173.25" rx="18.41" ry="48" transform="translate(-1.53 439.63) rotate(-61.22)"/><path d="M466.37,196.4a9.45,9.45,0,0,1-5.37,4.13,24,24,0,0,1-6.78,1.16,54.41,54.41,0,0,1-13.69-1.47A93.72,93.72,0,0,1,415,190.11a113,113,0,0,1-22.05-16.38,58.21,58.21,0,0,1-8.86-10.5,24.32,24.32,0,0,1-2.87-6.33,9.7,9.7,0,0,1,.5-7,9.84,9.84,0,0,1,5.58-4.42,22.43,22.43,0,0,1,6.95-1.18A53.14,53.14,0,0,1,408,146a105.49,105.49,0,0,1,25.61,10.21,99,99,0,0,1,22.16,16.35,55,55,0,0,1,8.58,10.78,24.2,24.2,0,0,1,2.65,6.35A9.38,9.38,0,0,1,466.37,196.4Zm-.18-.1a9.07,9.07,0,0,0,.51-6.58,21.66,21.66,0,0,0-2.85-6.13,52.8,52.8,0,0,0-9-10.12,113.45,113.45,0,0,0-10.72-8.33,130.31,130.31,0,0,0-11.57-7.1,131.86,131.86,0,0,0-12.22-5.88,94,94,0,0,0-12.82-4.37,54.71,54.71,0,0,0-13.29-1.93,23,23,0,0,0-6.54.88,8.63,8.63,0,0,0-5.06,3.66,8.74,8.74,0,0,0-.63,6.3,21.21,21.21,0,0,0,2.64,6.16,50.66,50.66,0,0,0,8.71,10.4,87,87,0,0,0,10.71,8.42,124.24,124.24,0,0,0,11.69,7A131.22,131.22,0,0,0,440.83,199a53.26,53.26,0,0,0,13.38,2.15,21.63,21.63,0,0,0,6.7-.89A9,9,0,0,0,466.19,196.3Z" transform="translate(-69.67 -22.02)"/><path class="cls-6" d="M382.23,150.19c-1.13,2.45-2.31,4.87-3.51,7.29-.29.59-.62,1.21-.88,1.79a6.89,6.89,0,0,0-.54,1.76,10,10,0,0,0,.18,3.73,16.68,16.68,0,0,0,1.3,3.62,28,28,0,0,0,1.92,3.41,57,57,0,0,0,4.84,6.27,75.4,75.4,0,0,0,5.53,5.78,70.94,70.94,0,0,0,6.12,5.23,89.12,89.12,0,0,0,13.68,8.48c9.58,4.77,19.62,8.78,30.07,10.69a48.47,48.47,0,0,0,7.85.86,26.67,26.67,0,0,0,3.9-.17,16.16,16.16,0,0,0,3.75-.81,9.75,9.75,0,0,0,3.26-1.82,6.49,6.49,0,0,0,1.21-1.4c.35-.53.69-1.14,1-1.71,1.39-2.31,2.8-4.6,4.24-6.89l.18.1q-1.72,3.66-3.54,7.28c-.31.6-.58,1.19-.93,1.81a7.44,7.44,0,0,1-1.3,1.75,10.44,10.44,0,0,1-3.59,2.35,22.51,22.51,0,0,1-8.23,1.45,45.89,45.89,0,0,1-8.21-.7,79,79,0,0,1-15.67-4.61,103.78,103.78,0,0,1-14.56-7.22q-7-4.17-13.54-8.92a92.24,92.24,0,0,1-12.49-10.4,40.43,40.43,0,0,1-5.1-6.45,22.22,22.22,0,0,1-3.25-7.68,10.51,10.51,0,0,1,0-4.29,7.56,7.56,0,0,1,.76-2.05c.34-.63.69-1.17,1-1.76,1.4-2.3,2.81-4.6,4.27-6.87Z" transform="translate(-69.67 -22.02)"/><path class="cls-4" d="M407.33,172.28a39.64,39.64,0,0,1,3.13-6.79c2-3.6,4-5.56,6.42-6.35a7.5,7.5,0,0,1,6.13.76,7.89,7.89,0,0,1,3.87,8.71l.12.06c1.84-1.62,4.38-1.76,7.45-.84,4.13,1.21,7,2,8.32,2l-2,3.49c-1,0-3.56-.69-7.23-1.8-4.05-1.27-6.2-.64-8.05,2.36l-1.81,3.18L435,183.53l-1.92,3.37Zm13.81,3.38,2-3.46c2-3.6,1.37-7-1.62-8.71-3.37-1.91-6.23-.3-8.29,3.25a16,16,0,0,0-1.59,3.51Z" transform="translate(-69.67 -22.02)"/><ellipse class="cls-4" cx="892.1" cy="108.03" rx="37.98" ry="36.33" transform="translate(454.29 905.76) rotate(-72.72)"/><path class="cls-6" d="M926.7,118.79a37.18,37.18,0,0,0,1.52-14.36,37.62,37.62,0,0,0-4-13.76,38.17,38.17,0,0,0-8.76-11.17,36,36,0,0,0-12.32-6.94,34.56,34.56,0,0,0-27.78,2.69A37.44,37.44,0,0,0,857.93,97.4a38.89,38.89,0,0,0,2.34,27.85,35.37,35.37,0,0,0,8.59,11.18,34.72,34.72,0,0,0,26.27,8.25,37.25,37.25,0,0,0,31.57-25.89Zm.19.06a40.78,40.78,0,0,1-17.56,22.81A35.27,35.27,0,0,1,867.49,138a37.25,37.25,0,0,1-8.91-11.93,39.07,39.07,0,0,1-1.7-29,41.41,41.41,0,0,1,7-12.87A40.05,40.05,0,0,1,875,74.69a38.05,38.05,0,0,1,13.86-4.82A35.35,35.35,0,0,1,903.63,71a34.35,34.35,0,0,1,13,7.21,35.11,35.11,0,0,1,8.74,11.94A40.77,40.77,0,0,1,926.89,118.85Z" transform="translate(-69.67 -22.02)"/><ellipse class="cls-5" cx="885.3" cy="105.91" rx="37.98" ry="35.7" transform="translate(451.53 897.78) rotate(-72.72)"/><path class="cls-6" d="M919.29,116.49A37.59,37.59,0,0,0,917,88.56a37.46,37.46,0,0,0-8.55-11.17,34.7,34.7,0,0,0-12.16-7,33.77,33.77,0,0,0-27.47,2.92,37.78,37.78,0,0,0-17.12,22.11,39.35,39.35,0,0,0,2.11,27.67,34,34,0,0,0,20.49,18,34.84,34.84,0,0,0,27.24-3,37.63,37.63,0,0,0,17.71-21.69Zm.19.06a41.22,41.22,0,0,1-17.24,22.77,35.07,35.07,0,0,1-13.79,5.06,34.08,34.08,0,0,1-27.62-8.51,37,37,0,0,1-8.69-11.94,39.46,39.46,0,0,1-1.45-28.78,42.13,42.13,0,0,1,6.92-12.8,40.23,40.23,0,0,1,10.92-9.55,37.5,37.5,0,0,1,13.68-5,34,34,0,0,1,14.62,1,33,33,0,0,1,12.83,7.22,34.56,34.56,0,0,1,8.51,12A41.16,41.16,0,0,1,919.48,116.55Z" transform="translate(-69.67 -22.02)"/><path class="cls-4" d="M877.94,87.39a40.79,40.79,0,0,1,7.3,1.61c4,1.24,6.29,2.75,7.57,4.93a7.48,7.48,0,0,1,.56,6.15,7.88,7.88,0,0,1-7.68,5.64l0,.13c2,1.45,2.66,3.91,2.41,7.1-.31,4.29-.49,7.27-.23,8.56L884,120.32c-.22-.95-.09-3.62.21-7.45.38-4.22-.69-6.19-4-7.36l-3.49-1.09-3.87,12.43-3.7-1.15Zm-.36,14.22,3.79,1.18c4,1.23,7.15-.16,8.17-3.44,1.15-3.7-1-6.15-4.93-7.41a15.55,15.55,0,0,0-3.77-.8Z" transform="translate(-69.67 -22.02)"/><ellipse class="cls-4" cx="885.84" cy="339.59" rx="37.98" ry="36.33" transform="translate(228.78 1062.56) rotate(-72.72)"/><path class="cls-6" d="M920.44,350.36A37.21,37.21,0,0,0,922,336a37.57,37.57,0,0,0-12.77-24.92,36.15,36.15,0,0,0-12.32-6.95,34.59,34.59,0,0,0-27.77,2.7A37.44,37.44,0,0,0,851.67,329,38.92,38.92,0,0,0,854,356.82,35.59,35.59,0,0,0,862.6,368a34.72,34.72,0,0,0,26.28,8.25,37.25,37.25,0,0,0,31.56-25.89Zm.19.06a40.72,40.72,0,0,1-17.56,22.8,35.25,35.25,0,0,1-41.84-3.65,37.36,37.36,0,0,1-8.91-11.93,39.12,39.12,0,0,1-1.7-29,41.66,41.66,0,0,1,7-12.88,40.12,40.12,0,0,1,11.12-9.51,38.31,38.31,0,0,1,13.85-4.82,35.52,35.52,0,0,1,14.74,1.1,34.47,34.47,0,0,1,13,7.21,35.25,35.25,0,0,1,8.73,11.95A40.77,40.77,0,0,1,920.63,350.42Z" transform="translate(-69.67 -22.02)"/><ellipse class="cls-5" cx="879.04" cy="337.48" rx="37.98" ry="35.7" transform="translate(226.02 1054.58) rotate(-72.72)"/><path class="cls-6" d="M913,348.05a37.59,37.59,0,0,0-2.25-27.93A37.25,37.25,0,0,0,902.23,309,34.27,34.27,0,0,0,890.08,302a33.75,33.75,0,0,0-27.48,2.91A37.8,37.8,0,0,0,845.48,327a39.38,39.38,0,0,0,2.11,27.66,34,34,0,0,0,20.49,18,34.8,34.8,0,0,0,27.24-3A37.61,37.61,0,0,0,913,348.05Zm.19.06A41.18,41.18,0,0,1,896,370.88,35.09,35.09,0,0,1,882.19,376a34.1,34.1,0,0,1-27.61-8.52,36.53,36.53,0,0,1-8.69-11.93,39.49,39.49,0,0,1-1.46-28.79,42.47,42.47,0,0,1,6.92-12.8,40.57,40.57,0,0,1,10.92-9.55A37.57,37.57,0,0,1,876,299.41a34.13,34.13,0,0,1,14.62,1,33,33,0,0,1,12.83,7.22,34.66,34.66,0,0,1,8.51,11.95A41.17,41.17,0,0,1,913.22,348.11Z" transform="translate(-69.67 -22.02)"/><path class="cls-4" d="M871.69,319a40.8,40.8,0,0,1,7.29,1.62c4,1.23,6.29,2.75,7.57,4.92a7.48,7.48,0,0,1,.56,6.15,7.87,7.87,0,0,1-7.68,5.64l0,.13c2,1.46,2.66,3.91,2.41,7.1-.3,4.3-.48,7.27-.23,8.57l-3.83-1.2c-.22-.95-.09-3.62.21-7.45.38-4.22-.69-6.19-4-7.36L870.45,336l-3.87,12.43-3.7-1.15Zm-.37,14.22,3.79,1.18c4,1.24,7.15-.15,8.17-3.43,1.15-3.71-1-6.16-4.93-7.42a16.63,16.63,0,0,0-3.77-.8Z" transform="translate(-69.67 -22.02)"/></g><g id="Layer_6" data-name="Layer 6"><path class="cls-8" d="M381.81,346.75s5.61-1,7.31-3.91,13.25-15.55,18.94-17.09,4.69,10.49,0,12.41-7.52,9.89-7.57,13.79-.42,7.61-5.4,8.69-11.06-6.15-14.62-4.35S381.81,346.75,381.81,346.75Z" transform="translate(-69.67 -22.02)"/><path d="M381.76,346.68a21.78,21.78,0,0,0,3.1-1.12,11.45,11.45,0,0,0,2.69-1.66,5.05,5.05,0,0,0,.95-1.13c.25-.4.59-1,.9-1.42.65-.92,1.33-1.79,2-2.64,1.41-1.71,2.92-3.33,4.48-4.9a52.1,52.1,0,0,1,4.93-4.45,28.77,28.77,0,0,1,5.7-3.57,7.22,7.22,0,0,1,.82-.29,4.62,4.62,0,0,1,.85-.23,3.24,3.24,0,0,1,1.84.16,3.75,3.75,0,0,1,2,2.85,11.92,11.92,0,0,1-.75,6.63,7.87,7.87,0,0,1-1.88,2.85,5.41,5.41,0,0,1-.72.54l-.75.4a7.38,7.38,0,0,0-1.29.85,14.87,14.87,0,0,0-3.53,5.17,22.27,22.27,0,0,0-1.7,6.07,13.13,13.13,0,0,0-.08,1.56c0,.55,0,1.12,0,1.69a10.79,10.79,0,0,1-.73,3.5,6.06,6.06,0,0,1-2.43,2.91,7.66,7.66,0,0,1-1.69.8,7.26,7.26,0,0,1-1.81.41,8.2,8.2,0,0,1-3.63-.59,22,22,0,0,1-3.08-1.5c-1.91-1.08-3.76-2.4-5.64-2.8a2,2,0,0,0-.67-.06h-.33l-.29.08a2.13,2.13,0,0,0-.34.11,2.46,2.46,0,0,1-.54.16.93.93,0,0,1-.34,0,.86.86,0,0,1-.4-.09,1.08,1.08,0,0,1-.59-.56,2.37,2.37,0,0,1-.17-1.08,7.73,7.73,0,0,1,.11-.89c.11-.57.27-1.11.43-1.65a33.18,33.18,0,0,1,1.18-3.11C380.78,348.68,381.2,347.73,381.76,346.68Zm.11.14c-.66,2-1.37,4.15-1.84,6.24a14.63,14.63,0,0,0-.28,1.56,6.44,6.44,0,0,0,0,.75,1.2,1.2,0,0,0,.11.53s0,0,0,0,0,0,0,0,0,0,0,0l.07,0c.11,0,.3-.15.67-.28l.48-.17.5,0a3.4,3.4,0,0,1,1,0,11.64,11.64,0,0,1,3.32,1.15c1,.49,2,1,2.94,1.51,1.9.95,3.89,1.93,5.68,1.71a6.86,6.86,0,0,0,1.39-.31,6,6,0,0,0,1.28-.6,4.5,4.5,0,0,0,1.74-2,9.19,9.19,0,0,0,.67-2.9c.05-.52.08-1,.1-1.59a13.2,13.2,0,0,1,.13-1.73,21.7,21.7,0,0,1,2.09-6.47,14.85,14.85,0,0,1,4.22-5.33,7.8,7.8,0,0,1,1.51-.87l.72-.32a4.49,4.49,0,0,0,.62-.42,6.58,6.58,0,0,0,1.83-2.5,10.32,10.32,0,0,0,.74-6.26,3,3,0,0,0-1.68-2.29,3.88,3.88,0,0,0-2.82.58,28.63,28.63,0,0,0-5.16,3.81,125.11,125.11,0,0,0-9.32,9.11c-.72.81-1.45,1.61-2.12,2.45-.36.44-.58.8-.95,1.3a5.71,5.71,0,0,1-1.28,1.27,10.58,10.58,0,0,1-3.06,1.49A14.54,14.54,0,0,1,381.87,346.82Z" transform="translate(-69.67 -22.02)"/></g><g id="Layer_4" data-name="Layer 4"><circle class="cls-9" cx="441.36" cy="379.99" r="127.4"/><path class="cls-6" d="M383.78,402a126.78,126.78,0,0,0,2.5,24.81,121.72,121.72,0,0,0,7.4,23.79,126.69,126.69,0,0,0,27.93,40.81,129.36,129.36,0,0,0,41.16,27.1,133,133,0,0,0,23.66,7.16,129,129,0,0,0,73-6.73,124.14,124.14,0,0,0,41.27-27.23,123.86,123.86,0,0,0,15.83-19.19,125.16,125.16,0,0,0,21-70.52,126.76,126.76,0,0,0-78.41-116.27,128.77,128.77,0,0,0-23.61-7.14,126.3,126.3,0,0,0-49.11-.06,130.78,130.78,0,0,0-23.65,7.07,128.85,128.85,0,0,0-41.18,27A124.87,124.87,0,0,0,383.78,402Zm-.3,0a129.35,129.35,0,0,1,2.34-24.91,132.38,132.38,0,0,1,7.11-24,128.83,128.83,0,0,1,27.32-41.86,127.76,127.76,0,0,1,140.13-28.38,128.57,128.57,0,0,1,69.46,69.94A127.69,127.69,0,0,1,639.25,402a130.12,130.12,0,0,1-2.63,25,129.68,129.68,0,0,1-35.14,65.47,130.44,130.44,0,0,1-19.33,16,126.78,126.78,0,0,1-120.38,12.47,126.33,126.33,0,0,1-41.49-28.16A128.87,128.87,0,0,1,393,450.91,131,131,0,0,1,383.48,402Z" transform="translate(-69.67 -22.02)"/><circle class="cls-5" cx="441.36" cy="379.99" r="108.34"/><path class="cls-6" d="M402.84,402a108.34,108.34,0,0,0,2.13,21.1,103.67,103.67,0,0,0,6.32,20.21A107.7,107.7,0,0,0,435.09,478a110.36,110.36,0,0,0,55.05,29,106.81,106.81,0,0,0,97.13-28.73,105.18,105.18,0,0,0,13.45-16.31,107.72,107.72,0,0,0,9.92-18.67,106,106,0,0,0,7.9-41.26,108,108,0,0,0-31.9-75.61,107.5,107.5,0,0,0-96.45-29.16,111.94,111.94,0,0,0-20.08,6,109.35,109.35,0,0,0-35,22.87,107.49,107.49,0,0,0-23.81,34.6A105.53,105.53,0,0,0,402.84,402Zm-.3,0a111.91,111.91,0,0,1,8-41.63,109.83,109.83,0,0,1,23.19-35.68A107.6,107.6,0,0,1,511,292.12,109,109,0,0,1,617.92,423.27,110.56,110.56,0,0,1,588,479a111.15,111.15,0,0,1-16.44,13.62,107.81,107.81,0,0,1-102.5,10.73,106.64,106.64,0,0,1-35.3-24.05,109.37,109.37,0,0,1-23.19-35.66A111.84,111.84,0,0,1,402.54,402Z" transform="translate(-69.67 -22.02)"/><path class="cls-10" d="M508.62,396.85l10,2.6,13.93-53.73c.82-3.17,1.62-14.56-1.14-15.28h0c-2.76-.71-8,9.51-8.86,12.69Z" transform="translate(-69.67 -22.02)"/><path class="cls-6" d="M508.78,396.76c3.65.64,7,1.09,10.1,1.72l-1.22.72c1.18-5.85,2.47-11.67,3.92-17.45s3.09-11.51,5-17.18c.88-2.85,1.85-5.67,2.67-8.54.43-1.42.83-2.86,1.21-4.3s.77-2.88,1.12-4.33c.18-.71.39-1.46.53-2.15s.22-1.42.29-2.15a38.06,38.06,0,0,0,.15-4.4,30.7,30.7,0,0,0-.36-4.32,10.55,10.55,0,0,0-.52-1.94,2.57,2.57,0,0,0-.38-.69c-.14-.16-.2-.13-.14-.09s0,0-.22.14a5.18,5.18,0,0,0-.62.52,12.34,12.34,0,0,0-1.25,1.53,32.8,32.8,0,0,0-2.19,3.64c-.67,1.27-1.3,2.57-1.84,3.88a18,18,0,0,0-.69,1.92l-.5,2.06c-1.34,5.67-2.71,11.26-4.33,16.86C516.3,373.43,512.74,384.7,508.78,396.76Zm-.31.18c2-11,4.44-22.8,7.25-34.65,1.38-5.93,3-11.87,4.65-17.74l.64-2.26a20.28,20.28,0,0,1,.9-2.25,41.18,41.18,0,0,1,2.16-4.11,31.48,31.48,0,0,1,2.66-3.85,13.85,13.85,0,0,1,1.74-1.78,5.86,5.86,0,0,1,1.19-.79,3,3,0,0,1,1.92-.3,2.6,2.6,0,0,1,1.62,1.18,4.75,4.75,0,0,1,.57,1.32,11.4,11.4,0,0,1,.4,2.43,33.57,33.57,0,0,1,0,4.6c-.09,1.52-.3,3-.5,4.52-.11.75-.24,1.49-.42,2.25l-.59,2.18c-.39,1.43-.78,2.87-1.12,4.32s-.72,2.89-1,4.35c-.67,2.9-1.21,5.84-1.81,8.76-1.13,5.87-2.42,11.68-4,17.42s-3.24,11.47-5,17.16l-.32,1-.9-.28C514.85,399.32,511.49,398,508.47,396.94Z" transform="translate(-69.67 -22.02)"/><path class="cls-10" d="M496.91,397.93l6.26-6.91-31.65-28.68c-1.87-1.69-9.54-6.1-11.27-4.19h0c-1.73,1.91,3.13,9.41,5,11.1Z" transform="translate(-69.67 -22.02)"/><path class="cls-6" d="M496.9,397.76l2.83-3.93c.89-1.25,1.76-2.4,2.63-3.54l.07,1.55A178,178,0,0,1,482,373.2a131,131,0,0,0-10-9.63,19.19,19.19,0,0,0-5.71-3.52,18.08,18.08,0,0,0-3.12-1,6.54,6.54,0,0,0-1.45-.17,1.59,1.59,0,0,0-.49.1c-.1.05-.07.08,0,.06s0,.26.1.67a7.12,7.12,0,0,0,.45,1.35,22.78,22.78,0,0,0,1.51,2.82,29.73,29.73,0,0,0,1.88,2.67,13.31,13.31,0,0,0,1,1.17c.25.25.75.66,1.16,1,3.39,2.93,6.7,5.85,9.92,9C483.69,383.9,490,390.46,496.9,397.76Zm0,.35C490.1,393,482.77,387.19,475.55,381c-3.61-3.08-7.14-6.35-10.58-9.62-.44-.43-.83-.76-1.37-1.35a17.27,17.27,0,0,1-1.18-1.51,30.1,30.1,0,0,1-1.92-3.1,21.75,21.75,0,0,1-1.5-3.4,10.57,10.57,0,0,1-.44-2,4.5,4.5,0,0,1,0-1.21,2.89,2.89,0,0,1,.62-1.44,2.7,2.7,0,0,1,1.41-.84,4.37,4.37,0,0,1,1.23-.06,8.48,8.48,0,0,1,1.94.47,22,22,0,0,1,3.28,1.56c1,.6,2,1.22,3,1.91a17.86,17.86,0,0,1,1.44,1.07c.49.41.86.82,1.3,1.2a135,135,0,0,0,10.56,9,177.9,177.9,0,0,1,20.55,18.53l.82.84-.74.71c-1.22,1.16-2.43,2.32-3.64,3.37S498,397.18,496.92,398.11Z" transform="translate(-69.67 -22.02)"/><circle class="cls-9" cx="440.8" cy="379.65" r="17.65"/><path class="cls-6" d="M492.94,401.67a15.29,15.29,0,0,0,1.51,6.63,16.67,16.67,0,0,0,4.07,5.32,19.37,19.37,0,0,0,12,4.7,16.57,16.57,0,0,0,12.2-4.45,15.72,15.72,0,0,0,3.73-5.61,16.36,16.36,0,0,0,1.06-6.59A17.59,17.59,0,0,0,522.15,390a17,17,0,0,0-11.68-4.69,18.26,18.26,0,0,0-11.93,4.45,16.65,16.65,0,0,0-4.08,5.3A15.56,15.56,0,0,0,492.94,401.67Zm-.24,0a19.78,19.78,0,0,1,4.73-13,17,17,0,0,1,5.84-4.34,18,18,0,0,1,14.43-.08,18.8,18.8,0,0,1,6,4.18,17.73,17.73,0,0,1,5,13.28,20.05,20.05,0,0,1-11.29,16.92,18.31,18.31,0,0,1-7,1.72,16.68,16.68,0,0,1-13-5.63A19.81,19.81,0,0,1,492.7,401.67Z" transform="translate(-69.67 -22.02)"/><path d="M530.06,304.65l0,0-3.6.84,0-2,4.52-1L533,303l-4.9,18-2.36-.64Z" transform="translate(-69.67 -22.02)"/><path d="M534.71,322.84l.41-1.5,2.42-1.34c5.79-3.13,8.51-4.9,9.28-7.61.49-1.83.07-3.76-2.63-4.5a6.37,6.37,0,0,0-4.24.49l-.31-1.93a8.14,8.14,0,0,1,5.6-.44c3.89,1.05,4.8,4.16,4.1,6.74-.91,3.33-4.05,5.36-8.85,8l-1.8.94,0,.06,8.1,2.2-.55,2Z" transform="translate(-69.67 -22.02)"/><path d="M483.71,311l-.06,0-3.59.86,0-2,4.51-1.07,2.09.56-4.81,18.06-2.36-.63Z" transform="translate(-69.67 -22.02)"/><path d="M498,314.81h-.06l-3.59.86,0-2,4.5-1.06,2.09.55-4.81,18.06-2.36-.63Z" transform="translate(-69.67 -22.02)"/><path d="M583.23,335.84l-.06,0-3.59.86,0-2,4.5-1.06,2.09.56-4.81,18.06-2.36-.63Z" transform="translate(-69.67 -22.02)"/><path d="M595,388.08l.39-1.5,2.42-1.35c5.78-3.16,8.48-4.94,9.23-7.66.49-1.83,0-3.76-2.64-4.48a6.3,6.3,0,0,0-4.24.51l-.32-1.93a8.18,8.18,0,0,1,5.6-.48c3.89,1,4.82,4.14,4.13,6.73-.89,3.33-4,5.38-8.8,8l-1.8,1,0,0,8.12,2.16-.54,2Z" transform="translate(-69.67 -22.02)"/><path d="M595.33,431a8.44,8.44,0,0,0,3.7,2.2c3.14.84,4.64-.91,5-2.41.65-2.54-1.34-4.23-3.7-4.86l-1.37-.36.49-1.83,1.36.36c1.78.47,4.28.15,4.85-2,.38-1.44-.2-3-2.45-3.56a6.82,6.82,0,0,0-3.93.23l-.16-1.95a8.88,8.88,0,0,1,5.09-.13c3.56.95,4.61,3.49,4,5.68-.49,1.86-2,3.15-4.46,3.37l0,.05a4.87,4.87,0,0,1,2.8,5.71c-.77,2.89-3.69,4.82-8,3.67a9.47,9.47,0,0,1-4.37-2.47Z" transform="translate(-69.67 -22.02)"/><path d="M577.3,475.85l1.31-4.92-8.39-2.23.43-1.61,11.12-9.39,2.64.7-3,11.23,2.52.67-.51,1.92-2.52-.68-1.31,4.92Zm1.82-6.84,1.6-6c.25-.94.53-1.88.84-2.81l-.08,0c-.84.91-1.49,1.57-2.21,2.27l-6,5,0,.06Z" transform="translate(-69.67 -22.02)"/><path d="M542.34,482.3l-6.89-1.84-1.92,4.46a9.13,9.13,0,0,1,1.5.28,7.86,7.86,0,0,1,3.63,2,5.34,5.34,0,0,1,1.35,5.32c-.94,3.53-4.45,5.43-8.37,4.38a9.12,9.12,0,0,1-4.2-2.3l1.1-1.7a8.41,8.41,0,0,0,3.6,2,4.11,4.11,0,0,0,5.32-2.78c.59-2.34-.52-4.42-4.13-5.38a21,21,0,0,0-2.55-.47l3.47-8.36,8.64,2.3Z" transform="translate(-69.67 -22.02)"/><path d="M500.35,484.8a8.92,8.92,0,0,0-1.86-.38,7.6,7.6,0,0,0-8,4.75l.08,0a5.59,5.59,0,0,1,4.92-.92c3.2.85,4.83,3.75,3.89,7.28-.87,3.31-3.94,5.77-7.69,4.77s-5.59-4.7-4.34-9.4a11.74,11.74,0,0,1,5.22-7.33,10.19,10.19,0,0,1,6.49-1.13,11.56,11.56,0,0,1,1.81.34ZM496.88,495c.69-2.58-.37-4.53-2.62-5.13a4.18,4.18,0,0,0-4.09,1.29,2.24,2.24,0,0,0-.57,1c-.73,3,0,5.55,2.6,6.23C494.31,499,496.2,497.62,496.88,495Z" transform="translate(-69.67 -22.02)"/><path d="M466.27,460.14l-.43,1.61L453.6,476.11l-2.53-.67,12.08-13.89,0-.06-8.84-2.35.54-2Z" transform="translate(-69.67 -22.02)"/><path d="M425.34,428.82c.61-2.28,2.4-3.53,4.87-3.88v-.09a4.64,4.64,0,0,1-1.79-4.82c.76-2.86,3.7-4.16,6.87-3.32,3.5.93,4.67,3.59,4.07,5.84a4.77,4.77,0,0,1-4.1,3.44l0,.08c2,1.49,3,3.44,2.4,5.64-.84,3.14-4.1,4.53-7.54,3.61C426.32,434.32,424.64,431.46,425.34,428.82Zm9.76,2.48c.58-2.2-.67-3.66-2.93-5-2.27.05-3.78,1.13-4.24,2.85a3.46,3.46,0,0,0,2.7,4.41C432.82,434.14,434.6,433.16,435.1,431.3Zm-4.33-10.82c-.48,1.81.63,3.14,2.56,4.25a3.69,3.69,0,0,0,3.63-2.55,2.9,2.9,0,0,0-2.28-3.75A3,3,0,0,0,430.77,420.48Z" transform="translate(-69.67 -22.02)"/><path d="M418.74,386.77a10.4,10.4,0,0,0,2,.45,7,7,0,0,0,4.24-.75,8.18,8.18,0,0,0,3.67-4.17l-.08,0a5.52,5.52,0,0,1-4.77.81,5.42,5.42,0,0,1-3.87-6.95,6.41,6.41,0,0,1,7.88-4.77c3.7,1,5.18,4.59,3.95,9.2-1.06,4-3.13,6.4-5.37,7.64a9.32,9.32,0,0,1-5.89,1,12.23,12.23,0,0,1-2.29-.46Zm3.66-10.15c-.6,2.25.34,4.2,2.45,4.76a4.19,4.19,0,0,0,4.06-.95,1.68,1.68,0,0,0,.46-.83c.82-3.08.31-5.75-2.25-6.42C425,372.62,423.08,374.06,422.4,376.62Z" transform="translate(-69.67 -22.02)"/><path d="M441.78,340.59h-.06l-3.59.86,0-2,4.51-1.06,2.08.55L439.94,357l-2.36-.62Z" transform="translate(-69.67 -22.02)"/><path d="M461,352.72c-1.63,6.14-4.81,8.93-8.81,7.86-3.53-.94-5-4.88-3.51-10.87s5.11-8.69,8.78-7.72S462.51,347,461,352.72Zm-9.88-2.33c-1.25,4.7-.51,7.75,1.71,8.34,2.5.67,4.47-1.93,5.7-6.55,1.18-4.44.82-7.66-1.71-8.34C454.66,343.28,452.41,345.47,451.1,350.39Z" transform="translate(-69.67 -22.02)"/><path d="M616.55,304.89a128.3,128.3,0,0,0-11.68-11.17q-6.15-5.24-12.77-9.82a151.17,151.17,0,0,0-28.18-15.35,128.73,128.73,0,0,0-15.18-5.32c-1.3-.34-2.59-.72-3.9-1l-3.94-.89c-2.65-.48-5.29-1-8-1.26s-5.36-.5-8-.67-5.4-.17-8.09-.1c-5.4,0-10.79.41-16.15.94s-10.7,1.33-16,2.17-10.6,1.93-15.87,3c-10.54,2.25-21,5.07-31.47,7.69-5.27,1.27-10.54,2.57-15.9,3.57A95.64,95.64,0,0,1,405,278.55c-.69,0-1.38,0-2.07,0l-2.08-.13c-1.38-.15-2.78-.34-4.1-.57l-8-1.37q-8-1.38-16-2.9l0-.3q8.09.78,16.15,1.7l8.07.93a46.7,46.7,0,0,0,7.92.32,93,93,0,0,0,15.81-2.35q7.86-1.77,15.7-3.84c5.24-1.32,10.48-2.69,15.77-3.91s10.58-2.4,15.91-3.44a227,227,0,0,1,32.33-4.08c2.71-.17,5.42-.24,8.14-.31s5.42-.07,8.14,0,5.42.12,8.13.2,5.42.27,8.12.61a125.61,125.61,0,0,1,31.81,7.15,107.63,107.63,0,0,1,14.85,6.92A123.45,123.45,0,0,1,593.45,282a114.43,114.43,0,0,1,23.34,22.7Z" transform="translate(-69.67 -22.02)"/><path d="M656.65,377.2a69.61,69.61,0,0,1,2.59,14.23c.11,1.21.18,2.41.26,3.62l.11,3.62c0,2.41,0,4.83-.23,7.23-.4,4.82-1.3,9.58-2,14.32s-1.5,9.48-2.32,14.23A110.45,110.45,0,0,1,646.24,462,100.44,100.44,0,0,1,639,474.6a91.08,91.08,0,0,1-9,11.36l-.23-.18a236.92,236.92,0,0,0,13.52-25.11c2-4.31,3.83-8.65,5.51-13.09.43-1.1.79-2.23,1.2-3.35s.78-2.24,1.15-3.36l1.14-3.39,1.06-3.41a83.28,83.28,0,0,0,3-14,121.73,121.73,0,0,0,.52-14.28c.15-9.5.11-19-.53-28.54Z" transform="translate(-69.67 -22.02)"/><path d="M408.68,500.74a48.1,48.1,0,0,1-9.57-5.37l-2.21-1.64c-.72-.56-1.42-1.16-2.13-1.74l-2.06-1.83q-1-1-1.95-2a62.07,62.07,0,0,1-6.6-8.81c-.5-.76-1-1.55-1.49-2.29a12,12,0,0,0-1.63-2.06,15.27,15.27,0,0,0-4.31-3c-6.48-2.81-13.71-3.47-20.72-6.11a31.82,31.82,0,0,1-5.09-2.47,22.94,22.94,0,0,1-4.49-3.55,19.34,19.34,0,0,1-5.12-9.88l.29-.1a24.32,24.32,0,0,0,6.47,8.19,31.68,31.68,0,0,0,9.07,4.81c3.28,1.22,6.71,2.26,10.18,3.37a40.23,40.23,0,0,1,10.07,4.58,24,24,0,0,1,4.31,3.53,20.32,20.32,0,0,1,1.77,2.16c.53.73,1.1,1.42,1.64,2.14a95.2,95.2,0,0,0,7.51,7.65,205.79,205.79,0,0,0,16.2,14.12Z" transform="translate(-69.67 -22.02)"/><path d="M605.08,514.46a36.88,36.88,0,0,1-5.39,6,42.11,42.11,0,0,1-6.33,5c-2.3,1.41-4.77,2.54-7.08,3.88-.57.34-1.14.69-1.7,1.06s-1.14.69-1.69,1.07c-1.13.71-2.19,1.55-3.32,2.27s-2.23,1.53-3.37,2.25-2.35,1.31-3.55,1.94-2.41,1.21-3.64,1.77a36.1,36.1,0,0,1-3.76,1.53c-1.29.42-2.58.82-3.88,1.19s-2.66.59-4,.85a27.1,27.1,0,0,1-4,.53c-1.35.09-2.7.15-4.05.15l0-.3c5.08-1.86,10-3.43,14.88-5.42,1.24-.41,2.42-1,3.66-1.42s2.46-.91,3.66-1.45l7.31-3.05a34.89,34.89,0,0,0,3.6-1.72,26.63,26.63,0,0,0,3.39-2.06c2.2-1.49,4.1-3.4,6.13-5.09,1-.87,2.07-1.65,3.13-2.43s2.14-1.53,3.21-2.32c2.17-1.51,4.32-3.05,6.64-4.45Z" transform="translate(-69.67 -22.02)"/><path d="M649.64,327.42a11.41,11.41,0,0,0-.88-1.5c-.32-.51-.67-1-1-1.51l-2-3c-1.4-2-2.81-3.92-4.23-5.86-2.84-3.89-5.79-7.68-8.67-11.54a143.94,143.94,0,0,0-8.94-11.39,89.16,89.16,0,0,0-10.62-9.85l-2.85-2.22-2.9-2.15c-1-.73-1.94-1.43-2.91-2.12s-1.93-1.43-2.94-2.09c-3.93-2.75-8-5.22-12.16-7.62s-8.4-4.56-12.73-6.61l-3.29-1.46c-1.1-.49-2.23-.89-3.35-1.36-2.21-1-4.52-1.67-6.79-2.57l.07-.29a76.5,76.5,0,0,1,14.24,3.49,88.6,88.6,0,0,1,13.42,6,101.19,101.19,0,0,1,12.26,8.11,103.29,103.29,0,0,1,11,9.65L624.58,292c3.4,3.46,6.95,6.82,10.17,10.5,1.6,1.84,3.12,3.75,4.54,5.74.72,1,1.41,2,2.11,3s1.34,2,2,3.06c1.3,2.07,2.54,4.18,3.67,6.34.57,1.08,1.1,2.19,1.61,3.3a17.44,17.44,0,0,1,1.26,3.52Z" transform="translate(-69.67 -22.02)"/><path d="M455.87,257.15a66.44,66.44,0,0,1-10.24,4.3l-2.64.85-2.67.76q-2.67.74-5.41,1.23c-3.64.64-7.36.88-11,1.42s-7.27,1.2-10.91,1.85A81.91,81.91,0,0,1,402,268.9a79.94,79.94,0,0,1-11.16,0,55.3,55.3,0,0,1-21.44-5.95l.1-.28c3.61.84,7.18,1.51,10.76,2s7.2.81,10.8,1,7.23.35,10.87.39h2.73c.91,0,1.82-.05,2.73-.05,1.82,0,3.65,0,5.49-.09a64.68,64.68,0,0,0,10.92-1.18c3.6-.7,7.09-1.9,10.61-2.89s7.08-1.8,10.64-2.64,7.13-1.66,10.77-2.35Z" transform="translate(-69.67 -22.02)"/><path d="M594.81,541.37a13,13,0,0,1-2.93,2.64,13.14,13.14,0,0,1-3.4,1.73c-1.23.37-2.59.46-3.78.89a13.85,13.85,0,0,0-3.36,1.81,20.18,20.18,0,0,1-3.34,2,23.08,23.08,0,0,1-3.58,1.44,13.42,13.42,0,0,1-1.9.43,15.75,15.75,0,0,1-1.95.25,16.36,16.36,0,0,1-2,0,13.39,13.39,0,0,1-2-.29l0-.3a54.49,54.49,0,0,1,6.88-3.16c1.16-.42,2.36-.73,3.57-1,.61-.17,1.2-.35,1.82-.48s1.26-.23,1.89-.35a11.72,11.72,0,0,0,3.6-1.18,37.38,37.38,0,0,0,3.11-2.27,17.51,17.51,0,0,1,7.25-2.37Z" transform="translate(-69.67 -22.02)"/><path d="M414.22,290.44a45.78,45.78,0,0,1-8.6,1.2c-.72,0-1.45.09-2.17.1h-2.16a32.9,32.9,0,0,1-4.32-.22c-1.44-.14-2.87-.39-4.29-.65s-2.85-.46-4.28-.66c-2.85-.32-5.71-.53-8.61-.6a66,66,0,0,1-8.64-.83,73.17,73.17,0,0,1-8.52-1.76,51.45,51.45,0,0,1-15.71-7.49l.14-.26c5.54,1.72,10.92,3.28,16.4,4.67,1.38.32,2.75.66,4.11,1s2.75.67,4.12,1,2.76.67,4.16,1,2.76.7,4.16,1,2.8.6,4.21.82a40.62,40.62,0,0,0,4.27.43,38.37,38.37,0,0,0,4.29,0l4.3-.19c2.85-.06,5.69.13,8.54.28s5.7.4,8.58.83Z" transform="translate(-69.67 -22.02)"/><path d="M396.47,477c-1.37-1.48-2.6-3-3.83-4.53l-1.82-2.28c-.63-.75-1.2-1.53-1.77-2.31a32.18,32.18,0,0,0-3.6-4.62,13.88,13.88,0,0,0-4.88-3.08,14.92,14.92,0,0,0-2.7-.65,26.89,26.89,0,0,0-2.79-.09,16.56,16.56,0,0,1-6.18-1.14,17.57,17.57,0,0,1-9-8.2l.2-.14a30.2,30.2,0,0,0,9.68,5.95,20.92,20.92,0,0,0,5.37,1.27,17.06,17.06,0,0,1,3.1.47,12.75,12.75,0,0,1,2.86,1.36,53.9,53.9,0,0,1,4.81,3.67,57,57,0,0,1,4.61,3.91,18.54,18.54,0,0,1,1.94,2.31c.59.81,1.14,1.65,1.66,2.51a25.44,25.44,0,0,1,2.51,5.48Z" transform="translate(-69.67 -22.02)"/></g><g id="Layer_3" data-name="Layer 3"><path d="M306.26,486.21s-7.29,7.29-5.83,11.66,5.83,8,13.12,8.75,11.67,4.38,15.31,8,15.32,6.57,19.69,4.38,5.11-12.4-2.92-16-21.87-8-24.06-15.32S306.26,486.21,306.26,486.21Z" transform="translate(-69.67 -22.02)"/><path class="cls-8" d="M384.87,338.46s5.61-.95,7.3-3.91,13.25-15.55,18.94-17.09,4.69,10.49,0,12.41-7.52,9.9-7.56,13.79-.43,7.61-5.41,8.69-11.06-6.15-14.62-4.34S384.87,338.46,384.87,338.46Z" transform="translate(-69.67 -22.02)"/><path d="M384.81,338.39a21.35,21.35,0,0,0,3.1-1.12,11.45,11.45,0,0,0,2.69-1.66,4.85,4.85,0,0,0,1-1.13c.25-.4.58-1,.9-1.42.64-.92,1.33-1.79,2-2.64,1.41-1.71,2.91-3.33,4.47-4.9a53.49,53.49,0,0,1,4.94-4.45,28.41,28.41,0,0,1,5.69-3.57,7.22,7.22,0,0,1,.82-.29,4.62,4.62,0,0,1,.85-.23,3.24,3.24,0,0,1,1.84.16,3.75,3.75,0,0,1,2,2.85,11.92,11.92,0,0,1-.74,6.63,8,8,0,0,1-1.89,2.85,4.23,4.23,0,0,1-.72.54l-.75.41a7.06,7.06,0,0,0-1.28.84,14.9,14.9,0,0,0-3.54,5.17,22.59,22.59,0,0,0-1.7,6.08,12.91,12.91,0,0,0-.07,1.55c0,.56,0,1.12-.06,1.69a11,11,0,0,1-.72,3.5,6.08,6.08,0,0,1-2.44,2.91,7.45,7.45,0,0,1-1.69.8,7.26,7.26,0,0,1-1.81.41,8.2,8.2,0,0,1-3.63-.59,21.31,21.31,0,0,1-3.07-1.5c-1.92-1.08-3.77-2.39-5.65-2.8a2.23,2.23,0,0,0-.67-.06h-.32l-.3.09a1.45,1.45,0,0,0-.34.1,2.31,2.31,0,0,1-.54.16.9.9,0,0,1-.34,0,.77.77,0,0,1-.4-.09,1.06,1.06,0,0,1-.58-.56,2.12,2.12,0,0,1-.17-1.08,6.37,6.37,0,0,1,.11-.89,14.78,14.78,0,0,1,.43-1.65,30.55,30.55,0,0,1,1.17-3.11C383.83,340.39,384.25,339.44,384.81,338.39Zm.11.14c-.65,2-1.37,4.15-1.84,6.24a14.56,14.56,0,0,0-.27,1.56,3.86,3.86,0,0,0,0,.75,1.07,1.07,0,0,0,.1.53h0l0,0s0,0,0,0l.06,0c.12,0,.31-.15.67-.28l.48-.17.5-.05a3.4,3.4,0,0,1,1,0,11.43,11.43,0,0,1,3.32,1.15c1,.49,2,1,2.94,1.51,1.9,1,3.89,1.93,5.69,1.71a6.78,6.78,0,0,0,1.38-.31,5.79,5.79,0,0,0,1.28-.6,4.59,4.59,0,0,0,1.75-2,9.13,9.13,0,0,0,.67-2.9q.06-.78.09-1.59a14.93,14.93,0,0,1,.14-1.72,21.94,21.94,0,0,1,2.08-6.48,15.07,15.07,0,0,1,4.22-5.33,7.87,7.87,0,0,1,1.52-.87l.72-.32a4.83,4.83,0,0,0,.62-.42,6.68,6.68,0,0,0,1.83-2.5,10.32,10.32,0,0,0,.74-6.26,3,3,0,0,0-1.69-2.29,3.88,3.88,0,0,0-2.82.58,29,29,0,0,0-5.16,3.81,123.08,123.08,0,0,0-9.31,9.11c-.72.81-1.46,1.62-2.12,2.45-.37.44-.59.8-1,1.3a5.67,5.67,0,0,1-1.27,1.27,10.71,10.71,0,0,1-3.06,1.49A14.62,14.62,0,0,1,384.92,338.53Z" transform="translate(-69.67 -22.02)"/><path d="M170.28,489.32s-6.45,4-8.07,8.07,8.16,11.34,11.92,13.68c5.54,3.45,4.22,10.52-3.85,11.33s-16.94-.81-20.17-5.65-9.68-17.75-12.91-23.4-1.52-21.58,4-22.59c17.75-3.23,11.3,10.49,22.6,4Z" transform="translate(-69.67 -22.02)"/><path class="cls-10" d="M168.39,490.52s46.79-17.91,55.66-26,33.09-45.18,33.09-45.18l54.74,10.85s-.81,47.61-7.26,58.1c0,0,12.91,4.84,16.94,1.61s15.67-61.07,14.53-70.2c-2.57-20.52-19.67-23.09-57.17-38.28,0,0-33.89,8.07-41.15,4s-26.63,33.89-26.63,46.8-12.1,15.33-25.82,23.4-21,17.1-21,17.1S160.32,484.87,168.39,490.52Z" transform="translate(-69.67 -22.02)"/><path class="cls-6" d="M168.41,490.34l13.44-5.76q6.74-2.93,13.42-6c4.46-2,8.89-4.08,13.26-6.26a107.83,107.83,0,0,0,12.63-7.15A18.25,18.25,0,0,0,223.8,463c.83-.83,1.62-1.73,2.4-2.64,1.57-1.84,3.07-3.75,4.55-5.68,2.95-3.88,5.79-7.85,8.59-11.86,5.63-8,11.08-16.14,16.45-24.31l.6-.91,1.06.21,13.68,2.74,13.67,2.82,27.29,5.8.91.2,0,.89q-.54,14.76-2,29.43c-.47,4.89-1.07,9.78-1.86,14.64-.39,2.43-.86,4.86-1.46,7.26a27.14,27.14,0,0,1-2.6,7l-.27-.79a50.14,50.14,0,0,0,9.68,2.45,15.39,15.39,0,0,0,4.84,0,4.15,4.15,0,0,0,1.94-.88,8.46,8.46,0,0,0,1.07-2c2.36-6.21,3.8-12.87,5.27-19.42s2.71-13.21,3.86-19.85,2.18-13.31,2.88-20c.17-1.66.32-3.33.4-5,0-.81.06-1.63,0-2.4a21.1,21.1,0,0,0-.31-2.33,24.07,24.07,0,0,0-3.35-8.87,23.27,23.27,0,0,0-3-3.65,31.35,31.35,0,0,0-3.71-3.05,59.62,59.62,0,0,0-8.58-4.8c-6-2.81-12.35-5.15-18.65-7.55s-12.65-4.78-18.94-7.29l1.13.08c-6.65,1.58-13.3,2.92-20.06,3.94-3.38.51-6.77.94-10.23,1.18-1.73.12-3.47.19-5.24.15a20.2,20.2,0,0,1-5.55-.77c-.25-.08-.5-.17-.76-.28a3.39,3.39,0,0,1-.39-.18l-.29-.15a.56.56,0,0,0-.29-.05,3.27,3.27,0,0,0-1.42.57,16.74,16.74,0,0,0-3.34,3,61.29,61.29,0,0,0-5.73,8,128.27,128.27,0,0,0-9,17.81,82.74,82.74,0,0,0-3.27,9.38,35.29,35.29,0,0,0-1,4.74c-.05.39-.08.78-.1,1.16l-.05,1.26a18.25,18.25,0,0,1-.31,2.74,15.41,15.41,0,0,1-2,5.2,18.65,18.65,0,0,1-3.65,4.1,45.64,45.64,0,0,1-8.89,5.46c-3.05,1.52-6.09,3-9.05,4.53a95.94,95.94,0,0,0-8.62,5.13,92.38,92.38,0,0,0-8,6,68.73,68.73,0,0,0-7.23,6.93l.11-.19a23.17,23.17,0,0,0-1,4.62,19.78,19.78,0,0,0,0,4.74,13,13,0,0,0,1.42,4.49,10.93,10.93,0,0,0,1.35,1.95A16.23,16.23,0,0,0,168.41,490.34Zm0,.36a10.4,10.4,0,0,1-2-1.62,11.06,11.06,0,0,1-1.52-2,13.43,13.43,0,0,1-1.72-4.67,20.61,20.61,0,0,1-.22-5,24.5,24.5,0,0,1,.84-4.91l0-.1.08-.09a78.79,78.79,0,0,1,15.1-13.8,98.64,98.64,0,0,1,8.64-5.51c3-1.69,6-3.23,8.95-4.82a47.41,47.41,0,0,0,8.25-5.32,15.08,15.08,0,0,0,3-3.5,12.22,12.22,0,0,0,1.56-4.22,14.7,14.7,0,0,0,.22-2.31l0-1.27c0-.46.05-.92.1-1.37a36.86,36.86,0,0,1,1-5.21,86.06,86.06,0,0,1,3.22-9.82,121.94,121.94,0,0,1,9-18.48,62.87,62.87,0,0,1,6-8.53,20,20,0,0,1,4.12-3.77,6.86,6.86,0,0,1,3.28-1.18,4.21,4.21,0,0,1,2.17.45l.28.13.19.09a3.54,3.54,0,0,0,.43.16,17.47,17.47,0,0,0,4.47.55c1.6,0,3.25,0,4.89-.13,3.3-.23,6.61-.64,9.92-1.14,6.61-1,13.24-2.29,19.77-3.76l.6-.13.53.22c6.23,2.56,12.5,5,18.8,7.46S311,392.06,317.23,395a60.14,60.14,0,0,1,9,5.2,34.84,34.84,0,0,1,4,3.45,26.15,26.15,0,0,1,3.34,4.22,26.83,26.83,0,0,1,3.61,10,21.84,21.84,0,0,1,.3,2.7,25.6,25.6,0,0,1-.07,2.65c-.11,1.73-.31,3.43-.52,5.12-.9,6.75-2.13,13.41-3.44,20.05s-2.76,13.24-4.35,19.82c-.8,3.29-1.63,6.57-2.54,9.83a88.62,88.62,0,0,1-3.11,9.73,8.83,8.83,0,0,1-1.33,2.39,5.08,5.08,0,0,1-2.59,1.23,16.5,16.5,0,0,1-5.25,0,51,51,0,0,1-9.9-2.59l-.62-.22.34-.58a24.92,24.92,0,0,0,2.45-6.73c.58-2.36,1-4.76,1.4-7.17.76-4.83,1.23-9.7,1.63-14.58s.63-9.77.82-14.67.31-9.79.34-14.67l.88,1.08-27.45-5-13.71-2.61-13.69-2.69,1.67-.7q-8.1,12.33-16.66,24.31c-2.88,4-5.8,7.95-8.85,11.83-1.53,1.93-3.09,3.85-4.74,5.72-.82.94-1.68,1.85-2.6,2.74a21.32,21.32,0,0,1-3,2.42,107.68,107.68,0,0,1-13.14,7c-4.46,2.08-9,4-13.5,5.93s-9.11,3.66-13.69,5.42l-6.88,2.61-3.46,1.25-1.73.62-.87.31-.43.16C168.73,490.58,168.65,490.64,168.37,490.7Z" transform="translate(-69.67 -22.02)"/><path class="cls-5" d="M299.9,350.28s14.52,14.58,25.84,14.42,58.51-8.08,58.51-8.08l-1.42-18-65.33-13.2-17.84-13.15-21.39,20.59Z" transform="translate(-69.67 -22.02)"/><path d="M300,350.13a67.25,67.25,0,0,0,8.62,7c.78.51,1.54,1,2.33,1.5s1.59,1,2.41,1.36,1.63.86,2.48,1.2l1.26.55c.42.16.85.3,1.28.45a22.3,22.3,0,0,0,5.19,1.2c.43,0,.86,0,1.29,0a8.18,8.18,0,0,0,1.3,0c.91-.1,1.79-.14,2.71-.28,3.64-.47,7.31-1.05,11-1.59,7.34-1.1,14.7-2.11,22.08-3s14.79-1.73,22.16-2.71l-.67.85c-.16-3-.33-6-.56-9s-.47-6-.73-9l.53.6c-2.72-.53-5.46-1-8.19-1.51l-8.22-1.4-16.44-2.75c-5.48-.92-10.94-1.95-16.4-3l-16.38-3.08-.44-.08-.42-.3c-3-2.14-6-4.35-8.95-6.53-1.48-1.1-3-2.17-4.45-3.29L298.37,314l2.8-.18q-5.39,5.1-10.9,10.09c-1.85,1.63-3.68,3.3-5.56,4.91l-5.62,4.87L279,332c3.45,3.11,6.9,6.2,10.39,9.25l5.28,4.5Zm-.28.31-5.45-4.29-5.54-4.2c-3.72-2.76-7.48-5.46-11.23-8.16l-1-.74.95-1,5.08-5.43c1.68-1.82,3.41-3.58,5.12-5.38q5.18-5.33,10.5-10.5l1.29-1.26,1.5,1.08,4.5,3.23c1.5,1.07,3,2.19,4.46,3.28,3,2.21,5.95,4.38,8.88,6.63l-.86-.39,16.29,3.52c5.42,1.18,10.85,2.35,16.26,3.63l16.22,3.85,8.12,1.9c2.71.61,5.42,1.22,8.14,1.79l.49.1,0,.5c.22,3,.42,6,.7,9s.55,6,.86,9l.08.7-.74.15c-7.31,1.46-14.61,3-21.93,4.35s-14.69,2.54-22.12,3.34c-3.72.37-7.43.73-11.22.83-.93.06-1.91,0-2.86,0a9.57,9.57,0,0,1-1.48-.11c-.5-.06-1-.09-1.49-.19a24.89,24.89,0,0,1-5.51-1.89,54.53,54.53,0,0,1-9.55-6A100.35,100.35,0,0,1,299.76,350.44Z" transform="translate(-69.67 -22.02)"/><path class="cls-5" d="M306.35,338.67s14.53,20.17,27.44,21.79,56.92-9.19,56.92-9.19l-6.35-14.89s-35.24-2.55-40.89-7.39-23.4-25-29.05-31.47-21.78-6.45-27.43-9.68-22.59,15.33-31.47,29.85-15.33,52.45-25.82,63.75S245,396,253.91,391.93s36.85-5.56,36.85-5.56,5.11-23.49,6.72-29.14S308.78,354.81,306.35,338.67Z" transform="translate(-69.67 -22.02)"/><path d="M306.28,338.48a.32.32,0,0,1,.2,0,.35.35,0,0,1,.1.1l.06.07.11.14.23.29.47.56.94,1.11c.64.73,1.29,1.46,1.94,2.17,1.31,1.44,2.65,2.85,4,4.21a64.78,64.78,0,0,0,8.85,7.4c3.13,2.15,6.56,4,10.11,4.53a28.62,28.62,0,0,0,5.57.1c1.9-.11,3.81-.31,5.73-.55,7.65-1,15.29-2.46,22.89-4.07s15.21-3.3,22.75-5.14L389,352c-2.1-5-4.24-9.93-6.28-14.92l1.53,1.09c-6.3-.53-12.53-1.31-18.77-2.25-3.12-.48-6.23-1-9.34-1.64a68.67,68.67,0,0,1-9.26-2.43,21.26,21.26,0,0,1-2.28-1,11.15,11.15,0,0,1-1.14-.66c-.18-.13-.37-.27-.56-.43s-.3-.28-.45-.42c-1.19-1.09-2.27-2.24-3.36-3.38q-3.24-3.45-6.39-6.95c-4.18-4.68-8.38-9.35-12.51-14.06L313.92,298a12,12,0,0,0-3.56-2.63,27.14,27.14,0,0,0-4.26-1.68,79.82,79.82,0,0,0-9.08-2.08c-1.54-.29-3.09-.57-4.65-.91a30.69,30.69,0,0,1-4.67-1.34,12.32,12.32,0,0,1-1.17-.55,1.93,1.93,0,0,0-.73-.22,4.53,4.53,0,0,0-1.84.31,16.15,16.15,0,0,0-3.8,2.16,54,54,0,0,0-6.81,6.14,130.52,130.52,0,0,0-11.71,14.4c-1.77,2.53-3.5,5.14-5,7.77a62.63,62.63,0,0,0-3.73,8.32c-2.2,5.77-4,11.75-5.87,17.74s-3.65,12-5.75,18c-1.06,3-2.17,6-3.5,8.91a47.12,47.12,0,0,1-4.8,8.62,25.43,25.43,0,0,1-1.64,2,10.85,10.85,0,0,0-1.2,1.53,4.53,4.53,0,0,0-.63,1.42,2,2,0,0,0,0,1.06,4.62,4.62,0,0,0,2.21,2.08,17.14,17.14,0,0,0,3.88,1.45,36,36,0,0,0,8.77,1,32.09,32.09,0,0,0,4.4-.32,17.79,17.79,0,0,0,4-1,44,44,0,0,1,9.48-2.52c3.15-.56,6.3-1,9.44-1.31,6.29-.67,12.56-1.16,18.87-1.37l-1.32,1.13c2-8.49,4-17,6.22-25.43.28-1.06.56-2.11.88-3.17a6.92,6.92,0,0,1,.7-1.72,5.92,5.92,0,0,1,1.24-1.43,19.92,19.92,0,0,1,2.88-1.83,11.82,11.82,0,0,0,2.5-1.8,9.12,9.12,0,0,0,2.43-5.55,22.64,22.64,0,0,0,.16-3.2c0-.54-.05-1.08-.08-1.62,0-.25-.05-.63,0-.94Zm.15.39a7.59,7.59,0,0,1,.4,1.39c.06.55.16,1.09.19,1.64a19.46,19.46,0,0,1,.07,3.33,10.13,10.13,0,0,1-2.38,6.33c-1.56,1.79-3.81,2.68-5.2,4a4.22,4.22,0,0,0-.83,1.08,5.6,5.6,0,0,0-.44,1.33c-.26,1-.51,2.1-.74,3.15-1.9,8.48-3.62,17-5.34,25.57l-.21,1-1.11.1c-6.2.55-12.44,1.15-18.59,2-3.08.44-6.15.92-9.16,1.55a39.89,39.89,0,0,0-8.59,2.54,27,27,0,0,1-10,1.81,39.57,39.57,0,0,1-9.89-1,21.08,21.08,0,0,1-4.92-1.8,11.26,11.26,0,0,1-2.39-1.65,7.26,7.26,0,0,1-1.92-2.77,6.35,6.35,0,0,1-.23-3.57,9,9,0,0,1,1.23-2.86,16,16,0,0,1,1.7-2.17,19.7,19.7,0,0,0,1.32-1.64,42.73,42.73,0,0,0,4.34-7.79c1.25-2.78,2.39-5.65,3.46-8.56,2.14-5.82,4-11.78,6-17.75s3.87-12,6.22-17.9a63.26,63.26,0,0,1,4.17-8.73c1.68-2.79,3.49-5.36,5.38-7.93a115.92,115.92,0,0,1,12.49-14.36,56.43,56.43,0,0,1,7.4-6.15,18.53,18.53,0,0,1,4.45-2.3,6.34,6.34,0,0,1,2.79-.32,3.89,3.89,0,0,1,1.48.51c.3.17.62.33.95.48a53.91,53.91,0,0,0,8.87,2.44c3.06.7,6.15,1.36,9.19,2.36a27.64,27.64,0,0,1,4.44,1.86,13.92,13.92,0,0,1,3.93,3l6.19,7.08c4.18,4.67,8.36,9.35,12.68,13.88,2.16,2.27,4.32,4.54,6.56,6.71,1.12,1.08,2.24,2.17,3.4,3.15l.42.36.39.27a10.11,10.11,0,0,0,.93.48,18.24,18.24,0,0,0,2.08.77,68.15,68.15,0,0,0,9,2c3.06.49,6.16.89,9.26,1.23,6.19.68,12.44,1.17,18.64,1.61l1.08.07.46,1c2.19,4.93,4.27,9.91,6.41,14.86l.89,2.06-2.17.51q-11.45,2.73-23,4.95c-3.85.72-7.71,1.4-11.58,2s-7.77,1.15-11.7,1.51c-2,.18-3.93.32-5.93.37a29.47,29.47,0,0,1-6.1-.36,27.11,27.11,0,0,1-10.85-5.4,67.72,67.72,0,0,1-8.6-8.14c-1.31-1.47-2.58-3-3.8-4.5q-.9-1.16-1.77-2.34L307,340l-.42-.61-.21-.3-.1-.15-.05-.08s0,0,0,0A.15.15,0,0,0,306.43,338.87Z" transform="translate(-69.67 -22.02)"/><path class="cls-8" d="M303.93,293.88s.22-10.2,3.5-11.06c2.89-.75,7.55,4.77,10.8,4.07s8.24-10.7,8.24-10.7l5.77,2.29s4.89-1.45,6.83-11.08S343.72,249,343.72,249s-23.49-21.78-37.44-15S287.65,260,289,267.34a29.35,29.35,0,0,1-4,21.42C280.76,295.88,303.93,293.88,303.93,293.88Z" transform="translate(-69.67 -22.02)"/><path d="M303.86,293.82s0,0,0,0V292.7l0-1.18c0-.79.12-1.57.22-2.36a16.74,16.74,0,0,1,1.14-4.65,3.88,3.88,0,0,1,1.67-2,3.58,3.58,0,0,1,2.66.05,28.71,28.71,0,0,1,4.23,2.25c1.32.75,2.76,1.52,4,1.42a1.92,1.92,0,0,0,.84-.26,5.7,5.7,0,0,0,.82-.62,13.1,13.1,0,0,0,1.5-1.64,48.56,48.56,0,0,0,4.8-7.89l.33-.64.66.26c1.94.74,3.86,1.5,5.79,2.27l-.53,0a5.67,5.67,0,0,0,1.46-.89,10.36,10.36,0,0,0,1.33-1.32,14.32,14.32,0,0,0,2-3.27,36.77,36.77,0,0,0,2.26-7.64q.94-4,2.06-7.88c.75-2.61,1.49-5.21,2.31-7.81l.08.3a85.45,85.45,0,0,0-12.63-9.44,45.47,45.47,0,0,0-14.4-6,17.62,17.62,0,0,0-7.55.07,12,12,0,0,0-3.43,1.5,16.93,16.93,0,0,0-1.63,1l-1.54,1.14a28.41,28.41,0,0,0-5.26,5.58,35,35,0,0,0-3.83,6.7,41.32,41.32,0,0,0-2.5,7.32,33.37,33.37,0,0,0-1,7.59,20.53,20.53,0,0,0,.39,3.81,32.49,32.49,0,0,1,.31,4.06,29.21,29.21,0,0,1-1.06,8.06,32.4,32.4,0,0,1-3.16,7.44c-.34.59-.72,1.18-.93,1.64a1.5,1.5,0,0,0,0,1.37,5.17,5.17,0,0,0,3,1.73,36.7,36.7,0,0,0,7.74,1c1.31.06,2.63.09,3.94.09Zm.13.12a.94.94,0,0,1-.3.06l-.25,0-.49.05-1,.09-2,.15c-1.32.08-2.65.13-4,.14a34.22,34.22,0,0,1-8-.68,9.83,9.83,0,0,1-2-.67,4.1,4.1,0,0,1-1.77-1.44,2.81,2.81,0,0,1-.18-2.44,16.57,16.57,0,0,1,1-1.85,30.92,30.92,0,0,0,2.83-7.18,27.19,27.19,0,0,0,.81-7.62,32.85,32.85,0,0,0-.36-3.83,22.61,22.61,0,0,1-.45-4.05,32.14,32.14,0,0,1,1-8.08,39.62,39.62,0,0,1,2.65-7.63,37,37,0,0,1,4.12-7,30.06,30.06,0,0,1,5.66-5.83L303,235a16.34,16.34,0,0,1,1.77-1,13.65,13.65,0,0,1,3.84-1.56,18.36,18.36,0,0,1,8.15.15,47.57,47.57,0,0,1,14.51,6.63,99.79,99.79,0,0,1,12.66,9.59l.13.11-.05.19c-.76,2.59-1.46,5.2-2.08,7.83s-1.2,5.27-1.73,7.92a37.23,37.23,0,0,1-2,8,14.78,14.78,0,0,1-2.15,3.67,10.72,10.72,0,0,1-1.52,1.57,7.11,7.11,0,0,1-2,1.18l-.24.09-.29-.11c-1.92-.75-3.85-1.52-5.76-2.3l1-.38a50.58,50.58,0,0,1-5.1,8.08,14.28,14.28,0,0,1-1.7,1.79,6.09,6.09,0,0,1-1.07.77,3.36,3.36,0,0,1-1.39.42,5.54,5.54,0,0,1-2.58-.58,20.79,20.79,0,0,1-2.13-1.18,27.18,27.18,0,0,0-4-2.33,2.72,2.72,0,0,0-1.92-.16,3.3,3.3,0,0,0-1.35,1.51,16.78,16.78,0,0,0-1.35,4.38C304.32,290.8,304.16,292.27,304,293.94Z" transform="translate(-69.67 -22.02)"/><path d="M340.9,259.34s4.59.27,6.21-3.51,4.05-10.8-1.62-15.65-13.5-11.07-22.13-13-19.7,0-22.67,2.43-14-4.86-25.1-4.32-25.1,4.86-29.42,14.85-19.43,21.32-24.83,23.48-35.44,13.82-45,29.1-18.46,33.1-19.09,44.56,13.36,25.47,27.37,26.74,44.56-10.19,45.2-28,15.91-38.2,25.46-42.65S272.48,259,276.94,252s14.64-14.64,18.46-13.37c0,0-8.91,9.55-9.55,16.55s-3.85,9,3.17,12.14,13.38-11.5,19.75-12.14S329.11,251.38,340.9,259.34Z" transform="translate(-69.67 -22.02)"/></g></svg>