<svg xmlns="http://www.w3.org/2000/svg" viewBox="0 0 672.81 98.79"><defs><style>.cls-1{fill:#29b7bf;}.cls-2,.cls-5{fill:#0e878e;}.cls-3{fill:#7cd5d8;}.cls-4{fill:#afe6e7;stroke:#fcfcfc;}.cls-4,.cls-5{stroke-miterlimit:10;stroke-width:2.16px;}.cls-5{stroke:#fcfafa;}.cls-6{font-size:35px;font-family:ArialMT, Arial;letter-spacing:-0.28em;}</style></defs><g id="Layer_2" data-name="Layer 2"><path class="cls-1" d="M77.13,9.73c.08,0,0,.29-.07.79-.13,1.58-.43,5.26-.61,8.26-.26,4.35.15,4.92-.33,8.77a10.71,10.71,0,0,1-9,9,11,11,0,0,1-12.65-9,10.78,10.78,0,0,1,4.77-11c2.61-1.61,5-2.06,8.43-3.12a57.18,57.18,0,0,0,8.73-3.25C77,9.87,77,9.67,77.13,9.73Z"/><path class="cls-2" d="M59.72,56.52a16.24,16.24,0,0,1-5.44-8.23,18.42,18.42,0,0,1,0-10.2,18.73,18.73,0,0,1,5.33-8.69,23.11,23.11,0,0,1,2-1.58c.72-.43,1.49-.87,2.16-1.23a9.17,9.17,0,0,0,3.53-2.9,5.34,5.34,0,0,1-.9,2.34A10.53,10.53,0,0,1,64.71,28c-.62.57-1.14,1.06-1.69,1.6s-1,1.1-1.46,1.7a22.5,22.5,0,0,0-4,7.75,21.71,21.71,0,0,0-.64,8.69A26.71,26.71,0,0,0,59.72,56.52Z"/><path class="cls-2" d="M39.72,8.32a38.4,38.4,0,1,0,38.4,38.39L39.8,46.62,40.43,8.3"/><path class="cls-1" d="M40,85c18.59.47,38.15-15.63,38.15-38.28L40,46.61,40,85"/><path class="cls-3" d="M40,47.37,40.43,8.3l-.71,0A38.34,38.34,0,0,0,7.57,25.72Z"/><line class="cls-4" x1="7.57" y1="25.72" x2="39.98" y2="47.37"/><line class="cls-5" x1="39.95" y1="46.61" x2="39.97" y2="84.99"/><path d="M100.14,84.44A4.15,4.15,0,0,1,96,80.26V12.73a4,4,0,0,1,1.21-3,4.12,4.12,0,0,1,3-1.17h17.58A40.76,40.76,0,0,1,133,11.32a35,35,0,0,1,12,7.87,36,36,0,0,1,7.82,12,40.76,40.76,0,0,1,2.77,15.26,41.08,41.08,0,0,1-2.77,15.3,35.88,35.88,0,0,1-7.82,12,35,35,0,0,1-12,7.87,40.76,40.76,0,0,1-15.26,2.77ZM104.41,77h13.31A29.55,29.55,0,0,0,133,73a28,28,0,0,0,10.44-10.83,32.13,32.13,0,0,0,3.79-15.74,32.1,32.1,0,0,0-3.79-15.74A27.71,27.71,0,0,0,133,19.92,29.81,29.81,0,0,0,117.72,16H104.41Z"/><path d="M193.21,84.92A24.87,24.87,0,0,1,180,81.37a25.66,25.66,0,0,1-9.23-9.66,27.89,27.89,0,0,1-3.4-13.8A27.14,27.14,0,0,1,170.92,44a26.13,26.13,0,0,1,9.66-9.67,27.06,27.06,0,0,1,13.8-3.55A26.62,26.62,0,0,1,208,34.35,26.32,26.32,0,0,1,217.65,44a27.9,27.9,0,0,1,3.64,13.89L218,59.47a26,26,0,0,1-3.26,13,24.45,24.45,0,0,1-8.84,9.13A24.19,24.19,0,0,1,193.21,84.92Zm1.17-7.48A18.51,18.51,0,0,0,204,74.91a17.82,17.82,0,0,0,6.7-7,20.62,20.62,0,0,0,2.43-10,20.5,20.5,0,0,0-2.43-10,18.86,18.86,0,0,0-25.94-7,19,19,0,0,0-6.8,7,19.82,19.82,0,0,0-2.53,10,19.94,19.94,0,0,0,2.53,10,18.4,18.4,0,0,0,16.42,9.52Zm22.73,7a4.2,4.2,0,0,1-3-1.12,4,4,0,0,1-1.16-3v-16l1.84-8.55,6.51,2.14V80.35a3.84,3.84,0,0,1-1.21,3A4.25,4.25,0,0,1,217.11,84.44Z"/><path d="M232.85,40.33a3.88,3.88,0,0,1-2.72-1,3.25,3.25,0,0,1-1.07-2.52,3.42,3.42,0,0,1,1.07-2.58,3.78,3.78,0,0,1,2.72-1h24a3.78,3.78,0,0,1,2.72,1,3.42,3.42,0,0,1,1.07,2.58,3.25,3.25,0,0,1-1.07,2.52,3.88,3.88,0,0,1-2.72,1Zm23.32,44.11a16.87,16.87,0,0,1-15.3-9.14,20.1,20.1,0,0,1-2.28-9.62V18.56a4.19,4.19,0,0,1,1.11-3,4.28,4.28,0,0,1,5.88,0,4.07,4.07,0,0,1,1.17,3V65.68a10.8,10.8,0,0,0,2.67,7.53,8.68,8.68,0,0,0,6.75,3H259a3.54,3.54,0,0,1,2.72,1.16,4.3,4.3,0,0,1,1.07,3,3.72,3.72,0,0,1-1.31,3,5,5,0,0,1-3.36,1.12Z"/><path d="M298,84.92a24.84,24.84,0,0,1-13.21-3.55,25.68,25.68,0,0,1-9.24-9.66,28,28,0,0,1-3.4-13.8A27.24,27.24,0,0,1,275.65,44a26.16,26.16,0,0,1,9.67-9.67,27.05,27.05,0,0,1,13.79-3.55,26.63,26.63,0,0,1,13.66,3.55A26.3,26.3,0,0,1,322.38,44,27.91,27.91,0,0,1,326,57.91l-3.31,1.56a26,26,0,0,1-3.25,13,24.52,24.52,0,0,1-8.84,9.13A24.22,24.22,0,0,1,298,84.92Zm1.16-7.48a18.48,18.48,0,0,0,9.62-2.53,17.84,17.84,0,0,0,6.71-7,20.62,20.62,0,0,0,2.43-10,20.5,20.5,0,0,0-2.43-10,18.86,18.86,0,0,0-25.94-7,19.06,19.06,0,0,0-6.81,7,19.92,19.92,0,0,0-2.52,10,20,20,0,0,0,2.52,10,18.43,18.43,0,0,0,16.42,9.52Zm22.74,7a4.2,4.2,0,0,1-3-1.12,3.92,3.92,0,0,1-1.17-3v-16l1.85-8.55L326,57.91V80.35a3.85,3.85,0,0,1-1.22,3A4.23,4.23,0,0,1,321.85,84.44Z"/><path d="M375.67,85.41a36.09,36.09,0,0,1-14.71-3,38.23,38.23,0,0,1-20.12-20.74A39.92,39.92,0,0,1,338,46.45a39.72,39.72,0,0,1,2.86-15.11,38,38,0,0,1,8-12.34,38.39,38.39,0,0,1,12-8.36,35.86,35.86,0,0,1,14.81-3.06,38.22,38.22,0,0,1,12.73,2,35.78,35.78,0,0,1,11,6.47,2.89,2.89,0,0,1,1.17,3.1,2.37,2.37,0,0,1-.78,1.27,2.36,2.36,0,0,1-1.07,1.84,3.62,3.62,0,0,1-2.28.64,4.15,4.15,0,0,1-2.48-1,25.85,25.85,0,0,0-8-4.81,29.35,29.35,0,0,0-10.3-1.61,27.34,27.34,0,0,0-11.46,2.43,30.22,30.22,0,0,0-9.42,6.71,31.09,31.09,0,0,0-6.37,9.91,31.53,31.53,0,0,0-2.28,12,31.66,31.66,0,0,0,2.28,12.09,31.2,31.2,0,0,0,6.37,9.86,30.06,30.06,0,0,0,9.42,6.71,27.34,27.34,0,0,0,11.46,2.43,27.86,27.86,0,0,0,9.82-1.75,34.34,34.34,0,0,0,8.84-5,3.69,3.69,0,0,1,2.82-.87,4.13,4.13,0,0,1,2.48,1.26,4,4,0,0,1,1,2.82,4.82,4.82,0,0,1-.24,1.51,4.58,4.58,0,0,1-.92,1.5,30.82,30.82,0,0,1-11.13,6.41A41.15,41.15,0,0,1,375.67,85.41Zm25-11.37-8.16-1.75V53.54H377.91a4.33,4.33,0,0,1-3-1.07,3.46,3.46,0,0,1-1.22-2.72A3.32,3.32,0,0,1,375,47.08a4.44,4.44,0,0,1,3-1h18.56a4,4,0,0,1,4.17,4.18Z"/><path d="M419.79,84.44a3.72,3.72,0,0,1-4.09-4.09v-45a4.09,4.09,0,1,1,8.17,0v45a3.72,3.72,0,0,1-4.08,4.09ZM419.4,51.5a21.48,21.48,0,0,1,3.06-10.64A21.18,21.18,0,0,1,430,33.43a20.17,20.17,0,0,1,10.39-2.72q5,0,7.53,1.45c1.72,1,2.35,2.3,1.9,4a2.79,2.79,0,0,1-1.22,2,4.13,4.13,0,0,1-2.13.53c-.82,0-1.74,0-2.77-.09a22.94,22.94,0,0,0-10.11.63,14.59,14.59,0,0,0-7.09,4.61,11.74,11.74,0,0,0-2.62,7.68Z"/><path d="M481.38,84.92a27.36,27.36,0,0,1-13.94-3.5,25.4,25.4,0,0,1-9.57-9.62,27.51,27.51,0,0,1-3.5-13.89,27.7,27.7,0,0,1,3.5-14,25.47,25.47,0,0,1,9.57-9.62,27.46,27.46,0,0,1,13.94-3.5,27,27,0,0,1,13.8,3.5,25.56,25.56,0,0,1,9.52,9.62,28.49,28.49,0,0,1,3.6,14,27.51,27.51,0,0,1-3.5,13.89,25.4,25.4,0,0,1-9.57,9.62A27.15,27.15,0,0,1,481.38,84.92Zm0-7.48a18.69,18.69,0,0,0,9.72-2.53A17.49,17.49,0,0,0,497.75,68a20.86,20.86,0,0,0,2.39-10.06,21.13,21.13,0,0,0-2.39-10.1,17.51,17.51,0,0,0-6.65-7,19.92,19.92,0,0,0-19.43,0,18.25,18.25,0,0,0-6.75,7,20.4,20.4,0,0,0-2.48,10.1A20.14,20.14,0,0,0,464.92,68a18.22,18.22,0,0,0,6.75,6.94A18.68,18.68,0,0,0,481.38,77.44Z"/><path d="M532.1,84.44a4.24,4.24,0,0,1-2.48-.78,3.86,3.86,0,0,1-1.5-1.94L513.25,37a6.23,6.23,0,0,1,0-4.18c.49-1,1.51-1.55,3.06-1.55a4,4,0,0,1,2.48.78,5.14,5.14,0,0,1,1.6,2.62l13.12,40.22H531L543.18,34.5a5.37,5.37,0,0,1,1.45-2.34,3.79,3.79,0,0,1,2.63-.87,4,4,0,0,1,2.67.87,4.54,4.54,0,0,1,1.41,2.34l11.07,39.05h-1.55l12.63-38.86q1.07-3.4,4.08-3.4a3.18,3.18,0,0,1,3.16,1.7,5,5,0,0,1-.05,4l-14.87,44.7a4,4,0,0,1-1.4,1.94,4,4,0,0,1-2.48.78,4.22,4.22,0,0,1-2.48-.78A3.39,3.39,0,0,1,558,81.72L546.48,42.37h1.17L536,81.72a3.61,3.61,0,0,1-1.51,2A4.32,4.32,0,0,1,532.1,84.44Z"/><path d="M610.31,84.92a35.36,35.36,0,0,1-11.8-2,22,22,0,0,1-9.09-5.68,3.56,3.56,0,0,1-1-2.92A4.29,4.29,0,0,1,590,71.51a4.13,4.13,0,0,1,3.15-.92A4.81,4.81,0,0,1,595.93,72a14.33,14.33,0,0,0,5.83,3.93,22.33,22.33,0,0,0,8.36,1.51q6.71,0,9.81-2.28a7.06,7.06,0,0,0,3.21-5.59A6.38,6.38,0,0,0,620.08,64q-3.17-2.23-10.74-3.5Q599.53,58.88,595,55a11.91,11.91,0,0,1-4.52-9.33,12.59,12.59,0,0,1,2.72-8.26,16.54,16.54,0,0,1,7.14-4.95,29.3,29.3,0,0,1,20.84.53,20.42,20.42,0,0,1,7.68,5.88,3.57,3.57,0,0,1,1,2.86,3.52,3.52,0,0,1-1.55,2.48,4.49,4.49,0,0,1-3.06.49,4.93,4.93,0,0,1-2.87-1.56,14.43,14.43,0,0,0-5.54-3.79,20.27,20.27,0,0,0-7.09-1.16,15.31,15.31,0,0,0-8.11,1.94,5.78,5.78,0,0,0-3.16,5,6.15,6.15,0,0,0,1.12,3.7,9.17,9.17,0,0,0,4,2.76,42,42,0,0,0,8.16,2.19,39.45,39.45,0,0,1,11.51,3.5,15,15,0,0,1,6.07,5.29,12.75,12.75,0,0,1,1.85,6.76,13.11,13.11,0,0,1-2.57,8,17.4,17.4,0,0,1-7.29,5.54A27.59,27.59,0,0,1,610.31,84.92Z"/><text class="cls-6" transform="translate(628 30.55)">™</text></g></svg>